<?xml version="1.0" encoding="utf-8" standalone="no"?>
<!DOCTYPE svg PUBLIC "-//W3C//DTD SVG 1.1//EN"
  "http://www.w3.org/Graphics/SVG/1.1/DTD/svg11.dtd">
<svg xmlns:xlink="http://www.w3.org/1999/xlink" width="460.8pt" height="345.6pt" viewBox="0 0 460.8 345.6" xmlns="http://www.w3.org/2000/svg" version="1.1">
 <metadata>
  <rdf:RDF xmlns:dc="http://purl.org/dc/elements/1.1/" xmlns:cc="http://creativecommons.org/ns#" xmlns:rdf="http://www.w3.org/1999/02/22-rdf-syntax-ns#">
   <cc:Work>
    <dc:type rdf:resource="http://purl.org/dc/dcmitype/StillImage"/>
    <dc:date>2023-05-29T00:51:57.718141</dc:date>
    <dc:format>image/svg+xml</dc:format>
    <dc:creator>
     <cc:Agent>
      <dc:title>Matplotlib v3.7.1, https://matplotlib.org/</dc:title>
     </cc:Agent>
    </dc:creator>
   </cc:Work>
  </rdf:RDF>
 </metadata>
 <defs>
  <style type="text/css">*{stroke-linejoin: round; stroke-linecap: butt}</style>
 </defs>
 <g id="figure_1">
  <g id="patch_1">
   <path d="M 0 345.6 
L 460.8 345.6 
L 460.8 0 
L 0 0 
z
" style="fill: #ffffff"/>
  </g>
  <g id="axes_1">
   <g id="patch_2">
    <path d="M 57.6 307.584 
L 414.72 307.584 
L 414.72 41.472 
L 57.6 41.472 
z
" style="fill: #ffffff"/>
   </g>
   <g id="patch_3">
    <path d="M 73.832727 307.584 
L 127.941818 307.584 
L 127.941818 54.144 
L 73.832727 54.144 
z
" clip-path="url(#p64c3713b69)" style="fill: #bdd0f1; opacity: 0.5"/>
   </g>
   <g id="patch_4">
    <path d="M 73.832727 307.584 
L 127.941818 307.584 
L 127.941818 170.406668 
L 73.832727 170.406668 
z
" clip-path="url(#p64c3713b69)" style="fill: #3b60a0; opacity: 0.5"/>
   </g>
   <g id="matplotlib.axis_1">
    <g id="xtick_1">
     <g id="line2d_1">
      <defs>
       <path id="m7162cbe541" d="M 0 0 
L 0 3.5 
" style="stroke: #000000; stroke-width: 0.8"/>
      </defs>
      <g>
       <use xlink:href="#m7162cbe541" x="100.887273" y="307.584" style="stroke: #000000; stroke-width: 0.8"/>
      </g>
     </g>
     <g id="text_1">
      <!-- 视频时长/秒 -->
      <g transform="translate(73.387273 322.632437) scale(0.1 -0.1)">
       <defs>
        <path id="STSongti-SC-Black-89c6" d="M 877 5280 
Q 1101 5280 1433 5197 
Q 1766 5114 1920 4966 
Q 2074 4819 2074 4633 
Q 2074 4448 1917 4294 
Q 1760 4141 1574 4141 
Q 1235 4141 1210 4538 
Q 1197 4768 1123 4909 
Q 1050 5050 931 5139 
Q 813 5229 813 5254 
Q 813 5280 877 5280 
z
M 3456 4698 
L 4787 4698 
Q 4960 5024 5005 5072 
Q 5050 5120 5117 5120 
Q 5184 5120 5318 5040 
Q 5453 4960 5670 4787 
Q 5888 4614 5926 4569 
Q 5965 4525 5965 4486 
Q 5965 4403 5709 4307 
L 5709 2246 
Q 5709 1965 5715 1856 
L 5722 1651 
Q 5722 1510 5533 1440 
Q 5344 1370 5181 1370 
Q 5018 1370 4963 1408 
Q 4909 1446 4909 1562 
L 4909 4486 
L 3520 4486 
Q 3494 4435 3411 4390 
L 3411 1619 
Q 3411 1459 3366 1392 
Q 3322 1325 3168 1280 
Q 3014 1235 2886 1235 
Q 2758 1235 2716 1270 
Q 2675 1306 2675 1331 
Q 2675 1357 2688 1619 
Q 2701 1882 2701 2246 
L 2701 3469 
Q 2675 3450 2592 3424 
Q 2432 3392 2246 3129 
Q 2061 2867 1805 2650 
Q 2643 2451 2643 1894 
Q 2643 1722 2528 1594 
Q 2413 1466 2259 1466 
Q 2106 1466 2010 1584 
Q 1914 1702 1939 1869 
Q 1946 1920 1946 1971 
Q 1946 2240 1760 2490 
L 1760 -301 
Q 1760 -410 1702 -490 
Q 1645 -570 1446 -605 
Q 1248 -640 1107 -640 
Q 966 -640 966 -557 
L 979 -294 
Q 986 -26 986 294 
L 986 2067 
Q 634 1862 403 1750 
Q 173 1638 144 1638 
Q 115 1638 115 1664 
Q 115 1690 192 1747 
Q 691 2131 986 2438 
Q 986 2739 973 2970 
Q 1210 2925 1344 2880 
Q 1574 3232 1677 3597 
L 531 3597 
Q 358 3597 262 3552 
L 147 3840 
Q 282 3808 467 3808 
L 1696 3808 
Q 1792 3968 1843 4041 
Q 1894 4115 1920 4115 
Q 1952 4115 2256 3942 
Q 2560 3770 2701 3642 
L 2701 4000 
Q 2701 4608 2675 4947 
Q 3315 4781 3456 4698 
z
M 4006 813 
Q 3776 422 3408 121 
Q 3040 -179 2489 -428 
Q 1939 -678 1837 -678 
Q 1798 -678 1798 -652 
Q 1798 -627 1882 -589 
Q 2630 -198 2928 157 
Q 3226 512 3459 1043 
Q 3693 1574 3741 2198 
Q 3789 2822 3782 4090 
Q 4134 4077 4374 4045 
Q 4614 4013 4668 3977 
Q 4723 3942 4723 3900 
Q 4723 3859 4668 3827 
Q 4614 3795 4602 3578 
Q 4544 2694 4467 2157 
Q 4794 2099 4845 2076 
Q 4896 2054 4896 1993 
Q 4896 1933 4730 1837 
L 4730 365 
Q 4730 218 4806 154 
Q 4883 90 5097 90 
Q 5312 90 5437 157 
Q 5562 224 5667 451 
Q 5773 678 5914 1197 
Q 5939 1274 5977 1274 
Q 6016 1274 6003 1178 
Q 5946 819 5946 620 
Q 5946 422 5990 313 
Q 6035 205 6172 134 
Q 6310 64 6310 -67 
Q 6310 -198 6176 -361 
Q 6042 -525 5757 -576 
Q 5472 -627 4909 -627 
Q 4346 -627 4176 -476 
Q 4006 -326 4006 109 
L 4006 813 
z
" transform="scale(0.015625)"/>
        <path id="STSongti-SC-Black-9891" d="M 4134 4538 
L 3334 4538 
Q 3206 4538 3104 4467 
L 2938 4768 
Q 3091 4749 3258 4749 
L 5210 4749 
Q 5478 5184 5504 5213 
Q 5530 5242 5584 5242 
Q 5638 5242 5795 5117 
Q 5952 4992 6112 4857 
Q 6272 4723 6272 4630 
Q 6272 4538 6125 4538 
L 5197 4538 
Q 4928 4397 4793 4211 
Q 4659 4026 4416 3552 
L 5107 3552 
Q 5242 3763 5283 3833 
Q 5325 3904 5382 3904 
Q 5440 3904 5773 3673 
Q 6106 3443 6106 3360 
Q 6106 3290 5875 3194 
L 5875 1459 
Q 5875 1158 5882 1043 
L 5888 826 
Q 5888 781 5869 755 
Q 5850 730 5744 682 
Q 5638 634 5452 611 
Q 5267 589 5222 589 
Q 5178 589 5178 698 
L 5178 3341 
L 3994 3341 
Q 3981 3277 3904 3238 
L 3904 698 
Q 3904 634 3853 595 
Q 3802 557 3581 496 
Q 3360 435 3258 435 
Q 3219 435 3219 486 
L 3232 787 
Q 3245 1101 3245 1357 
L 3245 2003 
Q 3168 1990 3008 1670 
Q 2714 1062 2362 640 
Q 2010 218 1590 -60 
Q 1171 -339 726 -489 
Q 282 -640 211 -640 
Q 192 -640 192 -634 
Q 192 -614 294 -550 
Q 1293 77 1786 717 
Q 1664 698 1549 698 
Q 1434 698 1408 707 
Q 1382 717 1382 762 
L 1395 1133 
Q 1408 1510 1408 1946 
L 1408 2003 
Q 1293 1971 1210 1830 
Q 909 1344 611 1011 
Q 314 678 250 678 
Q 230 678 230 700 
Q 230 723 250 762 
Q 429 1069 531 1411 
Q 634 1754 710 2387 
Q 1120 2298 1408 2176 
L 1408 2765 
L 538 2765 
Q 410 2765 307 2694 
L 141 2995 
Q 294 2976 461 2976 
L 627 2976 
L 627 4179 
Q 627 4493 614 4749 
Q 877 4736 1081 4707 
Q 1286 4678 1321 4659 
Q 1357 4640 1357 4598 
Q 1357 4557 1248 4512 
L 1248 2976 
L 1587 2976 
L 1587 4672 
Q 1587 4992 1574 5242 
Q 1939 5229 2147 5184 
Q 2355 5139 2355 5075 
Q 2355 5011 2208 4947 
L 2208 4147 
L 2342 4147 
Q 2426 4301 2506 4413 
Q 2586 4525 2637 4525 
Q 2714 4525 2970 4313 
Q 3226 4102 3226 4019 
Q 3226 3936 3040 3936 
L 2208 3936 
L 2208 2976 
L 2432 2976 
Q 2688 3398 2758 3398 
Q 2816 3398 3245 2995 
L 3245 3142 
Q 3245 3533 3219 3808 
Q 3558 3731 3898 3552 
L 4134 3552 
Q 4154 3763 4154 4044 
Q 4154 4326 4134 4538 
z
M 2208 2765 
Q 2202 2707 2099 2675 
L 2099 1203 
Q 2400 1766 2522 2490 
Q 2912 2362 3245 2202 
L 3245 2778 
Q 3206 2765 3162 2765 
L 2208 2765 
z
M 4576 512 
Q 4410 230 4045 -38 
Q 3680 -307 3091 -524 
Q 2502 -742 2298 -742 
Q 2253 -742 2253 -720 
Q 2253 -698 2342 -659 
Q 2893 -442 3280 -182 
Q 3667 77 3891 393 
Q 4115 710 4166 1107 
Q 4218 1504 4218 2125 
Q 4218 2746 4211 3181 
Q 4442 3181 4688 3145 
Q 4934 3110 4995 3084 
Q 5056 3059 5056 3014 
Q 5056 2970 5001 2934 
Q 4947 2899 4931 2848 
Q 4915 2797 4909 2637 
Q 4870 1722 4809 1283 
Q 4749 845 4621 602 
Q 5395 493 5766 294 
Q 6138 96 6138 -250 
Q 6138 -442 6016 -563 
Q 5894 -685 5747 -685 
Q 5600 -685 5510 -627 
Q 5421 -570 5389 -474 
Q 5229 0 5053 182 
Q 4877 365 4576 512 
z
" transform="scale(0.015625)"/>
        <path id="STSongti-SC-Black-65f6" d="M 2592 3526 
Q 2714 3514 2867 3514 
L 4339 3514 
L 4339 4666 
Q 4339 4986 4326 5235 
Q 5037 5178 5158 5139 
Q 5280 5101 5280 5033 
Q 5280 4966 5114 4915 
L 5114 3514 
L 5158 3514 
Q 5299 3808 5356 3897 
Q 5414 3987 5475 3987 
Q 5536 3987 5849 3718 
Q 6163 3450 6163 3376 
Q 6163 3302 6042 3302 
L 5114 3302 
L 5114 147 
Q 5114 -141 5088 -278 
Q 5062 -416 4969 -499 
Q 4877 -582 4614 -652 
Q 4352 -723 4224 -723 
Q 4070 -723 4051 -563 
Q 4032 -403 3990 -300 
Q 3949 -198 3814 -118 
Q 3680 -38 3418 -6 
Q 3328 0 3328 41 
Q 3328 83 3424 83 
L 3814 70 
Q 4058 70 4170 99 
Q 4282 128 4310 185 
Q 4339 243 4339 352 
L 4339 3302 
L 2944 3302 
Q 2816 3302 2714 3232 
L 2592 3450 
L 2592 1152 
Q 2592 851 2598 736 
L 2605 525 
Q 2605 448 2566 397 
Q 2528 346 2358 294 
Q 2189 243 1971 243 
Q 1926 243 1888 291 
Q 1850 339 1850 410 
L 1850 749 
L 1133 749 
L 1133 256 
Q 1133 192 1094 144 
Q 1056 96 899 45 
Q 742 -6 602 -6 
Q 378 -6 378 109 
L 390 410 
Q 403 723 403 979 
L 403 4045 
Q 403 4435 390 4710 
Q 813 4563 1107 4422 
L 1747 4422 
Q 1907 4691 1952 4752 
Q 1997 4813 2045 4813 
Q 2093 4813 2345 4656 
Q 2598 4499 2707 4409 
Q 2816 4320 2816 4259 
Q 2816 4198 2592 4096 
L 2592 3526 
z
M 1133 2720 
L 1850 2720 
L 1850 4211 
L 1248 4211 
Q 1235 4128 1133 4096 
L 1133 2720 
z
M 1850 2509 
L 1133 2509 
L 1133 960 
L 1850 960 
L 1850 2509 
z
M 2970 2861 
Q 3142 2861 3376 2771 
Q 3610 2682 3770 2554 
Q 3930 2426 4003 2298 
Q 4077 2170 4077 1981 
Q 4077 1792 3939 1638 
Q 3802 1485 3603 1485 
Q 3405 1485 3312 1609 
Q 3219 1734 3238 1900 
Q 3258 2067 3258 2163 
Q 3258 2522 2989 2758 
Q 2925 2816 2925 2838 
Q 2925 2861 2970 2861 
z
" transform="scale(0.015625)"/>
        <path id="STSongti-SC-Black-957f" d="M 1542 2611 
L 691 2611 
Q 563 2611 461 2541 
L 294 2842 
Q 448 2822 614 2822 
L 1542 2822 
L 1542 4717 
Q 1542 5050 1530 5299 
Q 2170 5261 2291 5232 
Q 2413 5203 2413 5132 
Q 2413 5062 2266 5005 
L 2266 2822 
L 4941 2822 
Q 5229 3322 5270 3373 
Q 5312 3424 5357 3424 
Q 5434 3424 5722 3200 
Q 6010 2976 6128 2848 
Q 6246 2720 6246 2665 
Q 6246 2611 6112 2611 
L 3392 2611 
Q 3725 1658 4339 1101 
Q 4954 544 6035 275 
Q 6157 243 6157 224 
Q 6157 205 6022 173 
Q 5798 128 5548 -67 
Q 5299 -262 5165 -493 
Q 5139 -538 5101 -538 
Q 4986 -538 4509 -144 
Q 4032 250 3673 960 
Q 3315 1670 3270 2611 
L 2266 2611 
L 2266 410 
Q 2547 474 3004 621 
Q 3462 768 3488 768 
Q 3514 768 3514 762 
Q 3514 736 3411 659 
Q 2112 -346 1830 -685 
Q 1779 -742 1747 -742 
Q 1715 -742 1632 -611 
Q 1549 -480 1382 -240 
Q 1216 0 1216 64 
Q 1216 109 1286 134 
Q 1446 186 1494 243 
Q 1542 301 1542 429 
L 1542 2611 
z
M 4448 5165 
Q 4774 4941 5075 4697 
Q 5376 4454 5411 4412 
Q 5446 4371 5446 4326 
Q 5446 4282 5286 4282 
Q 5126 4282 4685 4013 
Q 4173 3693 3507 3366 
Q 2842 3040 2736 2989 
Q 2630 2938 2608 2938 
Q 2586 2938 2586 2944 
Q 2586 2970 2720 3098 
Q 3475 3827 3840 4288 
Q 4205 4749 4448 5165 
z
" transform="scale(0.015625)"/>
        <path id="STSongti-SC-Black-2f" d="M 2432 4838 
L 2963 4838 
L 762 -480 
L 237 -480 
L 2432 4838 
z
" transform="scale(0.015625)"/>
        <path id="STSongti-SC-Black-79d2" d="M 1312 4294 
Q 698 4237 352 4237 
Q 250 4237 250 4269 
Q 250 4301 384 4333 
Q 1466 4608 2349 5158 
Q 2611 4947 2806 4764 
Q 3002 4582 3053 4528 
Q 3104 4474 3104 4435 
Q 3104 4397 3046 4397 
Q 2989 4397 2921 4406 
Q 2854 4416 2649 4416 
Q 2445 4416 2150 4390 
Q 2106 4307 1997 4262 
L 1997 3290 
L 2157 3290 
Q 2253 3475 2342 3603 
Q 2432 3731 2470 3731 
Q 2509 3731 2669 3619 
Q 2829 3507 3078 3258 
Q 3162 3706 3155 4019 
Q 3731 3827 3974 3706 
L 3974 4672 
Q 3974 4992 3962 5242 
Q 4877 5203 4877 5062 
Q 4877 5005 4723 4934 
L 4723 4032 
Q 5434 3872 5818 3536 
Q 6202 3200 6202 2835 
Q 6202 2611 6074 2480 
Q 5946 2349 5763 2349 
Q 5581 2349 5507 2432 
Q 5434 2515 5414 2701 
Q 5331 3584 4723 3962 
L 4723 2342 
Q 4723 2093 4730 1926 
L 4742 1638 
Q 4742 1568 4694 1523 
Q 4646 1478 4464 1430 
Q 4282 1382 4051 1382 
Q 3955 1382 3955 1517 
L 3968 1766 
Q 3974 2022 3974 2342 
L 3974 3469 
Q 3872 3456 3770 3270 
Q 3411 2624 2957 2131 
Q 3021 2022 3021 1868 
Q 3021 1715 2905 1584 
Q 2790 1453 2611 1453 
Q 2291 1453 2272 1824 
Q 2246 2426 1997 2624 
L 1997 -352 
Q 1997 -422 1929 -473 
Q 1862 -525 1702 -566 
Q 1542 -608 1436 -608 
Q 1331 -608 1312 -592 
Q 1293 -576 1293 -531 
L 1299 -269 
Q 1312 -6 1312 307 
L 1312 1741 
Q 1062 1325 678 937 
Q 294 550 230 550 
Q 211 550 211 579 
Q 211 608 275 691 
Q 966 1626 1242 3078 
L 576 3078 
Q 448 3078 346 3008 
L 179 3309 
Q 333 3290 499 3290 
L 1312 3290 
L 1312 4294 
z
M 3040 3078 
L 1997 3078 
L 1997 2720 
Q 2528 2573 2797 2336 
Q 2950 2701 3040 3078 
z
M 5062 2400 
Q 5427 2240 5667 2109 
Q 5907 1978 5942 1936 
Q 5978 1894 5978 1850 
Q 5978 1766 5878 1766 
Q 5779 1766 5740 1731 
Q 5702 1696 5638 1587 
Q 5350 1088 5004 717 
Q 4659 346 4172 54 
Q 3686 -237 2979 -448 
Q 2272 -659 2048 -659 
Q 1997 -659 1997 -630 
Q 1997 -602 2106 -563 
Q 3258 -192 4035 573 
Q 4813 1338 5062 2400 
z
" transform="scale(0.015625)"/>
       </defs>
       <use xlink:href="#STSongti-SC-Black-89c6"/>
       <use xlink:href="#STSongti-SC-Black-9891" x="99.999985"/>
       <use xlink:href="#STSongti-SC-Black-65f6" x="199.999969"/>
       <use xlink:href="#STSongti-SC-Black-957f" x="299.999954"/>
       <use xlink:href="#STSongti-SC-Black-2f" x="399.999939"/>
       <use xlink:href="#STSongti-SC-Black-79d2" x="449.999924"/>
      </g>
     </g>
    </g>
    <g id="xtick_2">
     <g id="line2d_2">
      <g>
       <use xlink:href="#m7162cbe541" x="168.523636" y="307.584" style="stroke: #000000; stroke-width: 0.8"/>
      </g>
     </g>
     <g id="text_2">
      <!-- 播放量 -->
      <g transform="translate(153.523636 322.684) scale(0.1 -0.1)">
       <defs>
        <path id="STSongti-SC-Black-64ad" d="M 3642 4493 
Q 2656 4454 2214 4454 
Q 2086 4454 2086 4483 
Q 2086 4512 2240 4531 
Q 3002 4627 3862 4857 
Q 4723 5088 5139 5299 
Q 5421 5082 5619 4886 
Q 5818 4691 5846 4652 
Q 5875 4614 5875 4582 
Q 5875 4531 5811 4531 
Q 5747 4531 5635 4547 
Q 5523 4563 5347 4563 
Q 5171 4563 4474 4525 
Q 4442 4442 4346 4397 
L 4346 3398 
L 4429 3398 
Q 4653 4006 4762 4538 
Q 5024 4461 5305 4304 
Q 5587 4147 5587 4083 
Q 5587 4019 5478 4003 
Q 5370 3987 5114 3817 
Q 4858 3648 4595 3398 
L 5242 3398 
Q 5318 3533 5401 3661 
Q 5485 3789 5501 3805 
Q 5517 3821 5542 3821 
Q 5619 3821 5913 3561 
Q 6208 3302 6208 3244 
Q 6208 3187 6086 3187 
L 4646 3187 
Q 5197 2682 6253 2522 
Q 6368 2502 6368 2460 
Q 6368 2419 6275 2396 
Q 6182 2374 6022 2188 
Q 5862 2003 5805 1850 
Q 5779 1786 5715 1786 
Q 5664 1786 5293 2032 
Q 4922 2278 4726 2524 
Q 4531 2771 4384 3187 
L 4346 3187 
L 4346 2138 
Q 4346 2074 4294 2038 
Q 4243 2003 4051 1964 
Q 3859 1926 3699 1926 
Q 3622 1926 3622 2003 
L 3629 2317 
Q 3642 2643 3642 2880 
Q 3238 2362 2509 1946 
Q 2835 1869 2982 1824 
L 4806 1824 
Q 4902 1997 4931 2035 
Q 4960 2074 5005 2074 
Q 5082 2074 5341 1926 
Q 5600 1779 5715 1708 
Q 5830 1638 5830 1577 
Q 5830 1517 5664 1440 
L 5664 230 
L 5677 -416 
Q 5677 -486 5651 -521 
Q 5626 -557 5453 -621 
Q 5280 -685 4973 -685 
Q 4928 -685 4912 -665 
Q 4896 -646 4896 -576 
L 4896 -275 
L 3117 -275 
L 3117 -499 
Q 3117 -557 3075 -595 
Q 3034 -634 2835 -682 
Q 2637 -730 2406 -730 
Q 2349 -730 2349 -678 
L 2355 -301 
Q 2362 -122 2362 179 
L 2362 1306 
L 2355 1862 
Q 2227 1792 2035 1709 
Q 1843 1626 1811 1626 
Q 1779 1626 1779 1638 
Q 1779 1658 1869 1728 
Q 2374 2112 2646 2448 
Q 2918 2784 3072 3187 
L 2362 3187 
Q 2234 3187 2131 3117 
L 1965 3418 
Q 2118 3398 2285 3398 
L 3642 3398 
L 3642 4493 
z
M 3667 928 
L 3667 1613 
L 3213 1613 
Q 3206 1555 3117 1504 
L 3117 928 
L 3667 928 
z
M 4467 1613 
Q 4429 1542 4365 1510 
L 4365 928 
L 4896 928 
L 4896 1613 
L 4467 1613 
z
M 4365 717 
L 4365 -64 
L 4896 -64 
L 4896 717 
L 4365 717 
z
M 3667 -64 
L 3667 717 
L 3117 717 
L 3117 -64 
L 3667 -64 
z
M 1709 3533 
L 1709 2707 
Q 2374 2950 2441 2950 
Q 2509 2950 2509 2908 
Q 2509 2867 2355 2765 
L 1709 2355 
L 1709 26 
Q 1709 -307 1622 -441 
Q 1536 -576 1277 -643 
Q 1018 -710 877 -710 
Q 736 -710 710 -544 
Q 678 -339 592 -249 
Q 506 -160 323 -118 
Q 141 -77 141 -48 
Q 141 -19 256 -19 
Q 646 -19 832 41 
Q 1018 102 1018 262 
L 1018 1888 
Q 736 1683 506 1466 
Q 461 1421 425 1421 
Q 390 1421 371 1459 
Q 352 1498 272 1702 
Q 192 1907 96 2227 
Q 608 2355 1018 2490 
L 1018 3533 
L 557 3533 
Q 403 3533 282 3494 
L 173 3770 
Q 320 3744 493 3744 
L 1018 3744 
L 1018 4550 
Q 1018 4941 992 5242 
Q 1286 5235 1532 5200 
Q 1779 5165 1814 5142 
Q 1850 5120 1850 5088 
Q 1850 5011 1709 4954 
L 1709 3744 
Q 1939 4134 2016 4134 
Q 2093 4134 2377 3881 
Q 2662 3629 2662 3581 
Q 2662 3533 2541 3533 
L 1709 3533 
z
M 3450 3846 
Q 3450 3693 3338 3587 
Q 3226 3482 3072 3482 
Q 2822 3482 2790 3696 
Q 2758 3910 2700 4019 
Q 2643 4128 2524 4195 
Q 2406 4262 2406 4284 
Q 2406 4307 2534 4307 
Q 3450 4307 3450 3846 
z
" transform="scale(0.015625)"/>
        <path id="STSongti-SC-Black-653e" d="M 3424 2726 
Q 3878 3693 3942 5267 
Q 4218 5235 4618 5113 
Q 5018 4992 5018 4937 
Q 5018 4883 4883 4832 
Q 4806 4813 4614 4400 
Q 4422 3987 4250 3693 
L 5178 3693 
Q 5446 4205 5549 4205 
Q 5619 4205 5974 3929 
Q 6330 3654 6330 3568 
Q 6330 3482 6214 3482 
L 5382 3482 
Q 5600 3411 5789 3324 
Q 5978 3238 5978 3187 
Q 5978 3130 5843 3091 
Q 5773 3072 5731 2969 
Q 5690 2867 5626 2637 
Q 5370 1683 4915 1024 
Q 5453 467 6227 154 
Q 6336 109 6336 73 
Q 6336 38 6198 3 
Q 6061 -32 5859 -192 
Q 5658 -352 5536 -538 
Q 5485 -608 5440 -608 
Q 5357 -608 4976 -201 
Q 4595 205 4454 435 
Q 3974 -70 3209 -355 
Q 2445 -640 2336 -640 
Q 2285 -640 2285 -601 
Q 2285 -563 2374 -525 
Q 3622 26 4198 883 
Q 3808 1722 3795 3034 
Q 3661 2867 3475 2682 
Q 3494 2656 3494 2637 
Q 3494 2566 3290 2515 
Q 3258 1862 3171 1203 
Q 3085 544 3011 320 
Q 2938 96 2810 -48 
Q 2682 -192 2477 -253 
Q 2272 -314 2137 -314 
Q 2003 -314 1997 -179 
Q 1990 154 1504 307 
Q 1421 333 1421 365 
Q 1421 397 1523 387 
Q 1626 378 1808 378 
Q 1990 378 2163 458 
Q 2336 538 2390 698 
Q 2445 858 2509 1293 
Q 2573 1728 2586 2566 
L 1958 2566 
Q 1850 1581 1584 976 
Q 1318 371 793 -61 
Q 269 -493 211 -493 
Q 205 -493 205 -486 
Q 205 -461 314 -352 
Q 902 262 1107 1168 
Q 1312 2074 1293 3648 
L 813 3648 
Q 685 3648 582 3578 
L 416 3878 
Q 570 3859 736 3859 
L 2675 3859 
Q 2950 4333 3040 4333 
Q 3098 4333 3414 4099 
Q 3731 3866 3731 3757 
Q 3731 3648 3622 3648 
L 2093 3648 
Q 2054 3603 2041 3545 
Q 2029 3488 2013 3238 
Q 1997 2989 1978 2778 
L 2509 2778 
Q 2669 3091 2771 3091 
Q 2816 3091 3021 2985 
Q 3226 2880 3424 2726 
z
M 4115 3482 
Q 4058 3373 3885 3149 
Q 4045 2214 4531 1498 
Q 4838 2202 4992 3482 
L 4115 3482 
z
M 1414 5190 
Q 1920 5190 2224 4988 
Q 2528 4787 2528 4525 
Q 2528 4333 2374 4195 
Q 2221 4058 2016 4058 
Q 1920 4058 1843 4115 
Q 1766 4173 1740 4246 
Q 1715 4320 1715 4496 
Q 1715 4672 1609 4864 
Q 1504 5056 1395 5101 
Q 1286 5146 1286 5168 
Q 1286 5190 1414 5190 
z
" transform="scale(0.015625)"/>
        <path id="STSongti-SC-Black-91cf" d="M 1984 4998 
L 4339 4998 
Q 4448 5171 4521 5257 
Q 4595 5344 4646 5344 
Q 4730 5344 5069 5107 
Q 5408 4870 5408 4787 
Q 5408 4704 5171 4602 
L 5171 4166 
L 5184 3578 
Q 5184 3482 5129 3424 
Q 5075 3366 4912 3312 
Q 4749 3258 4525 3258 
Q 4403 3258 4397 3398 
L 1971 3398 
Q 1971 3347 1801 3276 
Q 1632 3206 1331 3206 
Q 1242 3206 1242 3277 
L 1254 3565 
Q 1267 3757 1267 3917 
L 1267 4685 
Q 1267 4966 1248 5242 
Q 1677 5126 1984 4998 
z
M 4397 4333 
L 4397 4787 
L 2099 4787 
Q 2074 4717 1978 4672 
L 1978 4333 
L 4397 4333 
z
M 4397 3610 
L 4397 4122 
L 1978 4122 
L 1978 3610 
L 4397 3610 
z
M 4736 2906 
L 634 2906 
Q 506 2906 403 2835 
L 237 3136 
Q 390 3117 557 3117 
L 5101 3117 
Q 5190 3283 5283 3430 
Q 5376 3578 5408 3616 
Q 5440 3654 5491 3654 
Q 5542 3654 5741 3488 
L 6106 3194 
Q 6259 3059 6259 2982 
Q 6259 2906 6074 2906 
L 4979 2906 
Q 5562 2534 5562 2432 
Q 5562 2330 5357 2259 
L 5357 1619 
Q 5357 1434 5366 1293 
Q 5376 1152 5376 1120 
Q 5376 1088 5344 1053 
Q 5312 1018 5107 934 
Q 5651 499 5651 378 
Q 5651 314 5510 314 
L 3552 314 
L 3552 -186 
L 5094 -186 
Q 5254 83 5331 169 
Q 5408 256 5453 256 
Q 5498 256 5709 115 
Q 5920 -26 6061 -144 
Q 6202 -262 6202 -329 
Q 6202 -397 6048 -397 
L 858 -397 
Q 730 -397 627 -467 
L 461 -166 
Q 614 -186 781 -186 
L 2835 -186 
L 2835 314 
L 1338 314 
Q 1210 314 1107 243 
L 941 544 
Q 1094 525 1261 525 
L 2835 525 
L 2835 960 
L 1792 960 
Q 1792 883 1757 844 
Q 1722 806 1555 764 
Q 1389 723 1165 723 
Q 1069 723 1078 848 
Q 1088 973 1088 1363 
L 1088 2291 
Q 1088 2560 1069 2835 
Q 1421 2752 1747 2630 
L 4570 2630 
Q 4659 2803 4736 2906 
z
M 2835 2419 
L 1939 2419 
Q 1907 2310 1792 2266 
L 1792 1894 
L 2835 1894 
L 2835 2419 
z
M 4595 1894 
L 4595 2419 
L 3674 2419 
Q 3642 2330 3552 2285 
L 3552 1894 
L 4595 1894 
z
M 2835 1683 
L 1792 1683 
L 1792 1171 
L 2835 1171 
L 2835 1683 
z
M 4595 1171 
L 4595 1683 
L 3552 1683 
L 3552 1171 
L 4595 1171 
z
M 4928 890 
Q 4794 877 4701 877 
Q 4608 877 4595 960 
L 3552 960 
L 3552 525 
L 4704 525 
Q 4787 685 4928 890 
z
" transform="scale(0.015625)"/>
       </defs>
       <use xlink:href="#STSongti-SC-Black-64ad"/>
       <use xlink:href="#STSongti-SC-Black-653e" x="99.999985"/>
       <use xlink:href="#STSongti-SC-Black-91cf" x="199.999969"/>
      </g>
     </g>
    </g>
    <g id="xtick_3">
     <g id="line2d_3">
      <g>
       <use xlink:href="#m7162cbe541" x="236.16" y="307.584" style="stroke: #000000; stroke-width: 0.8"/>
      </g>
     </g>
     <g id="text_3">
      <!-- 弹幕数x100 -->
      <g transform="translate(211.863906 322.732437) scale(0.1 -0.1)">
       <defs>
        <path id="STSongti-SC-Black-5f39" d="M 4320 4013 
Q 4627 4858 4672 5363 
Q 4966 5274 5283 5142 
Q 5600 5011 5654 4966 
Q 5709 4922 5709 4877 
Q 5709 4806 5597 4787 
Q 5485 4768 5241 4576 
Q 4998 4384 4653 4013 
L 5005 4013 
Q 5184 4326 5203 4345 
Q 5222 4365 5254 4365 
Q 5338 4365 5690 4125 
Q 6042 3885 6042 3817 
Q 6042 3750 5830 3699 
L 5830 2470 
L 5843 1882 
Q 5843 1811 5785 1769 
Q 5728 1728 5581 1683 
Q 5434 1638 5280 1638 
Q 5126 1638 5107 1667 
Q 5088 1696 5088 1798 
L 5088 1882 
L 4576 1882 
L 4576 1088 
L 5203 1088 
L 5491 1536 
Q 5542 1606 5603 1606 
Q 5664 1606 6022 1321 
Q 6381 1037 6381 957 
Q 6381 877 6266 877 
L 4576 877 
L 4576 237 
Q 4576 -51 4585 -240 
Q 4595 -429 4595 -448 
Q 4595 -557 4406 -611 
Q 4218 -666 4058 -666 
Q 3898 -666 3872 -646 
Q 3846 -627 3846 -544 
L 3859 -282 
Q 3866 -26 3866 282 
L 3866 877 
L 2726 877 
Q 2598 877 2496 806 
L 2330 1107 
Q 2483 1088 2650 1088 
L 3866 1088 
L 3866 1882 
L 3354 1882 
L 3354 1690 
Q 3354 1632 3328 1609 
Q 3302 1587 3145 1545 
Q 2989 1504 2746 1504 
Q 2662 1504 2662 1600 
L 2675 1882 
Q 2688 2067 2688 2227 
L 2688 3706 
Q 2688 3987 2669 4262 
Q 3078 4128 3347 4013 
L 4320 4013 
z
M 3866 3802 
L 3507 3802 
Q 3450 3744 3354 3738 
L 3354 3046 
L 3866 3046 
L 3866 3802 
z
M 5088 3046 
L 5088 3802 
L 4627 3802 
Q 4614 3789 4576 3770 
L 4576 3046 
L 5088 3046 
z
M 3866 2835 
L 3354 2835 
L 3354 2093 
L 3866 2093 
L 3866 2835 
z
M 5088 2093 
L 5088 2835 
L 4576 2835 
L 4576 2093 
L 5088 2093 
z
M 2938 5165 
Q 3443 5165 3724 5014 
Q 4006 4864 4006 4570 
Q 4006 4352 3849 4233 
Q 3693 4115 3549 4115 
Q 3405 4115 3302 4195 
Q 3200 4275 3200 4476 
Q 3200 4678 3091 4848 
Q 2982 5018 2790 5082 
Q 2714 5114 2714 5139 
Q 2714 5165 2938 5165 
z
M 1722 3475 
L 1722 4506 
L 627 4506 
Q 506 4506 397 4461 
L 230 4749 
Q 410 4717 550 4717 
L 1594 4717 
Q 1766 5005 1788 5030 
Q 1811 5056 1878 5056 
Q 1946 5056 2179 4912 
Q 2413 4768 2502 4704 
Q 2592 4640 2592 4576 
Q 2592 4486 2394 4442 
L 2394 3712 
Q 2394 3456 2403 3277 
Q 2413 3098 2413 3069 
Q 2413 3040 2387 3017 
Q 2362 2995 2272 2960 
Q 2182 2925 2016 2889 
Q 1850 2854 1786 2854 
Q 1722 2854 1722 2918 
L 1722 3264 
L 1229 3264 
Q 1197 3219 1152 3213 
L 1005 2240 
L 1574 2240 
Q 1722 2490 1750 2544 
Q 1779 2598 1827 2598 
Q 1875 2598 2124 2464 
Q 2374 2330 2489 2243 
Q 2605 2157 2605 2096 
Q 2605 2035 2394 1952 
Q 2374 1510 2288 870 
Q 2202 230 2144 19 
Q 2086 -192 1955 -336 
Q 1824 -480 1577 -569 
Q 1331 -659 1152 -659 
Q 1062 -659 1030 -630 
Q 998 -602 998 -506 
Q 998 -83 435 -6 
Q 314 13 314 45 
Q 314 77 525 77 
Q 883 77 1100 137 
Q 1318 198 1414 307 
Q 1510 416 1596 1136 
Q 1683 1856 1677 2029 
L 992 2029 
L 915 1882 
Q 870 1792 825 1792 
Q 781 1792 496 1936 
Q 211 2080 211 2134 
Q 211 2189 275 2221 
Q 378 2266 410 2522 
L 499 3283 
Q 518 3450 518 3549 
Q 518 3648 512 3706 
Q 838 3610 1126 3475 
L 1722 3475 
z
" transform="scale(0.015625)"/>
        <path id="STSongti-SC-Black-5e55" d="M 3840 4410 
L 2675 4410 
L 2675 4173 
Q 2675 4109 2627 4073 
Q 2579 4038 2342 3990 
Q 2106 3942 1946 3942 
Q 1888 3942 1894 4019 
Q 1914 4186 1914 4410 
L 742 4410 
Q 614 4410 512 4339 
L 346 4640 
Q 499 4621 666 4621 
L 1914 4621 
L 1914 4883 
Q 1914 5126 1907 5280 
Q 2394 5274 2608 5235 
Q 2822 5197 2822 5126 
Q 2822 5056 2675 5005 
L 2675 4621 
L 3840 4621 
L 3840 4960 
Q 3840 5101 3827 5299 
Q 4461 5242 4605 5216 
Q 4749 5190 4749 5120 
Q 4749 5050 4595 4986 
L 4595 4621 
L 5069 4621 
Q 5293 5005 5334 5062 
Q 5376 5120 5427 5120 
Q 5517 5120 5853 4838 
Q 6189 4557 6189 4483 
Q 6189 4410 6054 4410 
L 4595 4410 
Q 4595 4307 4602 4256 
L 4608 4160 
Q 4608 4077 4358 4009 
Q 4109 3942 3993 3942 
Q 3878 3942 3859 3958 
Q 3840 3974 3840 4013 
L 3840 4410 
z
M 3635 179 
Q 3635 -38 3642 -192 
L 3654 -448 
Q 3654 -486 3632 -505 
Q 3610 -525 3453 -585 
Q 3296 -646 3107 -691 
Q 2918 -736 2873 -736 
Q 2829 -736 2829 -698 
L 2842 -410 
Q 2854 -237 2854 6 
L 2854 1043 
L 2093 1043 
Q 2067 992 2003 973 
L 2003 -115 
Q 2003 -179 1984 -204 
Q 1965 -230 1856 -275 
Q 1747 -320 1542 -371 
Q 1338 -422 1290 -422 
Q 1242 -422 1242 -371 
L 1254 -83 
Q 1267 102 1267 314 
L 1267 1101 
Q 1062 1030 659 921 
Q 256 813 201 813 
Q 147 813 147 832 
Q 147 851 230 890 
Q 1478 1408 2048 1946 
L 653 1946 
Q 525 1946 422 1875 
L 256 2176 
Q 410 2157 576 2157 
L 2246 2157 
Q 2406 2349 2490 2515 
L 1894 2515 
Q 1894 2470 1878 2451 
Q 1862 2432 1756 2393 
Q 1651 2355 1497 2326 
Q 1344 2298 1197 2298 
Q 1152 2298 1158 2362 
Q 1171 2509 1171 2835 
L 1171 3552 
Q 1171 3821 1152 4096 
Q 1568 3987 1914 3846 
L 4557 3846 
Q 4659 4006 4707 4054 
Q 4755 4102 4793 4102 
Q 4832 4102 5005 4019 
Q 5178 3936 5357 3824 
Q 5536 3712 5568 3680 
Q 5600 3648 5600 3616 
Q 5600 3546 5414 3475 
L 5414 2906 
Q 5414 2797 5421 2714 
L 5434 2573 
Q 5434 2541 5405 2512 
Q 5376 2483 5190 2422 
Q 5005 2362 4685 2362 
Q 4634 2362 4618 2381 
Q 4602 2400 4602 2458 
L 4602 2515 
L 3552 2515 
Q 3526 2502 3462 2490 
Q 3456 2490 3337 2355 
Q 3219 2221 3136 2157 
L 5222 2157 
Q 5408 2490 5462 2566 
Q 5517 2643 5555 2643 
Q 5632 2643 5965 2371 
Q 6298 2099 6298 2022 
Q 6298 1946 6163 1946 
L 4365 1946 
Q 4832 1587 6362 1510 
Q 6445 1504 6445 1475 
Q 6445 1446 6333 1414 
Q 6221 1382 6073 1238 
Q 5926 1094 5824 870 
Q 5786 794 5734 794 
Q 5683 794 5619 822 
Q 5555 851 5376 922 
Q 5350 902 5331 896 
L 5331 186 
Q 5331 19 5292 -99 
Q 5254 -218 5148 -304 
Q 5043 -390 4848 -441 
Q 4653 -493 4496 -493 
Q 4339 -493 4333 -346 
Q 4320 -115 4182 -6 
Q 4045 102 3635 179 
z
M 4602 3296 
L 4602 3635 
L 2022 3635 
Q 1978 3597 1894 3571 
L 1894 3296 
L 4602 3296 
z
M 4602 2726 
L 4602 3085 
L 1894 3085 
L 1894 2726 
L 4602 2726 
z
M 4102 1946 
L 2893 1946 
Q 2438 1587 1792 1306 
Q 1875 1299 2010 1254 
L 2854 1254 
L 2854 1344 
Q 2854 1683 2842 1869 
Q 3411 1811 3587 1776 
Q 3763 1741 3763 1683 
Q 3763 1626 3635 1562 
L 3635 1254 
L 4531 1254 
L 4576 1344 
Q 4250 1581 4102 1946 
z
M 3635 211 
Q 4026 205 4214 224 
Q 4403 243 4464 291 
Q 4525 339 4525 442 
L 4525 1043 
L 3635 1043 
L 3635 211 
z
" transform="scale(0.015625)"/>
        <path id="STSongti-SC-Black-6570" d="M 2330 4051 
Q 2566 4378 2810 4973 
Q 3059 4877 3302 4729 
Q 3546 4582 3546 4515 
Q 3546 4448 3414 4435 
Q 3283 4422 3120 4336 
Q 2957 4250 2330 3827 
L 2330 3738 
L 2784 3738 
Q 3014 4141 3091 4141 
Q 3149 4141 3385 3920 
Q 3622 3699 3622 3612 
Q 3622 3526 3456 3526 
L 2330 3526 
L 2330 3373 
Q 2790 3290 3033 3120 
Q 3277 2950 3277 2771 
Q 3277 2592 3165 2467 
Q 3053 2342 2928 2342 
Q 2803 2342 2736 2406 
Q 2669 2470 2630 2637 
Q 2560 2989 2330 3226 
L 2330 3053 
Q 2330 2842 2342 2605 
L 2349 2387 
Q 2349 2336 2320 2313 
Q 2291 2291 2118 2208 
Q 2285 2131 2304 2102 
Q 2323 2074 2323 2054 
Q 2323 1990 2227 1971 
Q 2150 1952 2010 1728 
L 2381 1728 
Q 2496 1939 2544 2003 
Q 2592 2067 2637 2067 
Q 2682 2067 3066 1843 
Q 3834 3072 3898 5261 
Q 4294 5210 4569 5142 
Q 4845 5075 4899 5043 
Q 4954 5011 4954 4966 
Q 4954 4909 4880 4873 
Q 4806 4838 4761 4742 
Q 4717 4646 4617 4352 
Q 4518 4058 4346 3648 
L 5184 3648 
Q 5466 4192 5552 4192 
Q 5638 4192 5856 4009 
Q 6074 3827 6182 3721 
Q 6291 3616 6291 3539 
Q 6291 3437 6170 3437 
L 5466 3437 
Q 5811 3366 5811 3264 
Q 5811 3206 5737 3171 
Q 5664 3136 5622 3024 
Q 5581 2912 5501 2541 
Q 5421 2170 5232 1674 
Q 5043 1178 4851 890 
Q 5325 454 6246 141 
Q 6323 115 6323 83 
Q 6323 51 6214 32 
Q 6106 13 5872 -179 
Q 5638 -371 5517 -550 
Q 5478 -608 5433 -608 
Q 5389 -608 5347 -582 
Q 5306 -557 5088 -361 
Q 4870 -166 4700 19 
Q 4531 205 4403 384 
Q 3866 -141 3232 -441 
Q 2598 -742 2490 -742 
Q 2458 -742 2458 -716 
Q 2458 -691 2534 -646 
Q 3693 0 4166 762 
Q 3808 1446 3776 2566 
Q 3520 2163 3168 1773 
Q 3398 1651 3398 1568 
Q 3398 1485 3299 1449 
Q 3200 1414 3165 1379 
Q 3130 1344 3024 1123 
Q 2918 902 2746 659 
Q 2854 621 3014 525 
Q 3174 429 3225 304 
Q 3277 179 3277 60 
Q 3277 -58 3158 -170 
Q 3040 -282 2902 -282 
Q 2765 -282 2592 -109 
Q 2419 64 2285 173 
Q 1830 -192 1126 -419 
Q 422 -646 307 -646 
Q 262 -646 262 -624 
Q 262 -602 333 -576 
Q 1306 -198 1862 448 
Q 1498 634 787 800 
Q 1011 1184 1178 1517 
L 755 1517 
Q 627 1517 525 1446 
L 352 1747 
Q 506 1728 672 1728 
L 1280 1728 
Q 1376 1920 1574 2394 
L 1645 2374 
L 1645 3021 
Q 1325 2554 848 2214 
Q 371 1875 288 1875 
Q 275 1875 275 1888 
Q 275 1914 358 1997 
Q 960 2560 1299 3526 
L 755 3526 
Q 589 3526 480 3494 
L 371 3770 
Q 506 3738 691 3738 
L 1645 3738 
L 1645 4698 
Q 1645 5018 1632 5267 
Q 1978 5235 2179 5196 
Q 2381 5158 2419 5129 
Q 2458 5101 2458 5053 
Q 2458 5005 2330 4954 
L 2330 4051 
z
M 4851 3437 
L 4250 3437 
Q 4141 3181 3942 2842 
Q 4058 1952 4454 1357 
Q 4787 2176 4851 3437 
z
M 1888 1517 
L 1549 928 
Q 1850 902 2144 838 
Q 2330 1165 2413 1517 
L 1888 1517 
z
M 563 4806 
Q 947 4806 1238 4646 
Q 1530 4486 1530 4294 
Q 1530 4102 1437 3984 
Q 1344 3866 1203 3866 
Q 1062 3866 998 3926 
Q 934 3987 922 4134 
Q 883 4518 557 4742 
Q 512 4774 512 4790 
Q 512 4806 563 4806 
z
" transform="scale(0.015625)"/>
        <path id="STSongti-SC-Black-78" d="M 2925 378 
Q 2803 390 2585 387 
Q 2368 384 2182 384 
Q 2086 384 1980 384 
Q 1875 384 1769 381 
Q 1664 378 1574 371 
Q 1485 365 1427 358 
L 1427 493 
L 1542 525 
Q 1664 557 1686 611 
Q 1709 666 1670 742 
Q 1658 768 1642 793 
Q 1626 819 1600 851 
L 1229 1350 
L 858 851 
Q 787 762 787 698 
Q 787 640 832 598 
Q 877 557 1005 531 
L 1197 493 
L 1197 358 
Q 941 384 611 384 
Q 282 384 -32 358 
L -32 493 
L 147 538 
Q 282 570 406 691 
Q 531 813 672 1005 
L 1088 1523 
L 506 2342 
Q 365 2509 288 2576 
Q 211 2643 160 2656 
L 6 2688 
L 6 2842 
Q 141 2822 621 2822 
Q 864 2822 1085 2825 
Q 1306 2829 1389 2842 
L 1389 2694 
L 1331 2682 
Q 1229 2662 1232 2608 
Q 1235 2554 1363 2368 
L 1651 1958 
L 1914 2298 
Q 2003 2419 2003 2496 
Q 2003 2618 1824 2656 
L 1664 2688 
L 1664 2842 
Q 1709 2829 1785 2825 
Q 1862 2822 1948 2819 
Q 2035 2816 2118 2816 
Q 2202 2816 2266 2816 
Q 2528 2816 2643 2822 
Q 2758 2829 2842 2835 
L 2842 2688 
L 2630 2650 
Q 2560 2630 2505 2601 
Q 2451 2573 2403 2528 
Q 2355 2483 2300 2416 
Q 2246 2349 2170 2253 
L 1798 1786 
L 2509 832 
Q 2618 691 2682 630 
Q 2746 570 2803 550 
L 2925 512 
L 2925 378 
z
" transform="scale(0.015625)"/>
        <path id="STSongti-SC-Black-31" d="M 2464 365 
Q 2298 371 2045 377 
Q 1792 384 1523 384 
Q 1254 384 1001 377 
Q 749 371 582 365 
L 582 550 
L 979 608 
Q 1203 659 1203 858 
L 1203 3840 
L 442 3347 
L 333 3546 
Q 442 3616 608 3718 
Q 774 3821 960 3942 
Q 1146 4064 1331 4192 
Q 1517 4320 1670 4448 
L 1882 4448 
L 1882 858 
Q 1882 634 2106 602 
L 2464 550 
L 2464 365 
z
" transform="scale(0.015625)"/>
        <path id="STSongti-SC-Black-30" d="M 1517 4448 
Q 1792 4448 2045 4285 
Q 2298 4122 2486 3840 
Q 2675 3558 2787 3177 
Q 2899 2797 2899 2362 
Q 2899 1933 2790 1555 
Q 2682 1178 2493 893 
Q 2304 608 2054 445 
Q 1805 282 1523 282 
Q 1248 282 995 442 
Q 742 602 550 880 
Q 358 1158 246 1539 
Q 134 1920 134 2355 
Q 134 2797 246 3181 
Q 358 3565 547 3846 
Q 736 4128 985 4288 
Q 1235 4448 1517 4448 
z
M 1517 518 
Q 1869 518 1997 966 
Q 2125 1414 2125 2362 
Q 2125 3309 1993 3760 
Q 1862 4211 1517 4211 
Q 1171 4211 1040 3763 
Q 909 3315 909 2362 
Q 909 518 1517 518 
z
" transform="scale(0.015625)"/>
       </defs>
       <use xlink:href="#STSongti-SC-Black-5f39"/>
       <use xlink:href="#STSongti-SC-Black-5e55" x="99.999985"/>
       <use xlink:href="#STSongti-SC-Black-6570" x="199.999969"/>
       <use xlink:href="#STSongti-SC-Black-78" x="299.999954"/>
       <use xlink:href="#STSongti-SC-Black-31" x="345.199951"/>
       <use xlink:href="#STSongti-SC-Black-30" x="392.099945"/>
       <use xlink:href="#STSongti-SC-Black-30" x="438.999939"/>
      </g>
     </g>
    </g>
    <g id="xtick_4">
     <g id="line2d_4">
      <g>
       <use xlink:href="#m7162cbe541" x="303.796364" y="307.584" style="stroke: #000000; stroke-width: 0.8"/>
      </g>
     </g>
     <g id="text_4">
      <!-- 点赞数x10 -->
      <g transform="translate(281.845582 322.713687) scale(0.1 -0.1)">
       <defs>
        <path id="STSongti-SC-Black-70b9" d="M 3578 4275 
L 4730 4275 
Q 5005 4730 5043 4778 
Q 5082 4826 5123 4826 
Q 5165 4826 5302 4720 
Q 5440 4614 5600 4473 
Q 5760 4333 5817 4269 
Q 5875 4205 5875 4154 
Q 5875 4064 5722 4064 
L 3578 4064 
L 3578 3194 
L 4358 3194 
Q 4416 3290 4499 3411 
Q 4582 3533 4608 3552 
Q 4634 3571 4659 3571 
Q 4749 3571 5113 3308 
Q 5478 3046 5478 2953 
Q 5478 2861 5248 2810 
L 5248 2003 
Q 5248 1664 5254 1568 
L 5261 1389 
Q 5261 1357 5238 1331 
Q 5216 1306 5107 1251 
Q 4998 1197 4784 1165 
Q 4570 1133 4522 1133 
Q 4474 1133 4461 1165 
Q 4448 1197 4448 1280 
L 4448 1478 
L 2061 1478 
L 2061 1280 
Q 2061 1229 2032 1203 
Q 2003 1178 1881 1130 
Q 1760 1082 1577 1062 
Q 1395 1043 1347 1043 
Q 1299 1043 1299 1094 
L 1312 1376 
Q 1325 1568 1325 1728 
L 1325 2925 
Q 1325 3206 1306 3482 
Q 1875 3334 2170 3194 
L 2816 3194 
L 2816 4755 
Q 2816 5075 2803 5325 
Q 3296 5306 3536 5267 
Q 3776 5229 3776 5139 
Q 3776 5050 3578 4973 
L 3578 4275 
z
M 4448 1690 
L 4448 2982 
L 2272 2982 
Q 2195 2918 2061 2880 
L 2061 1690 
L 4448 1690 
z
M 1222 966 
Q 1274 966 1347 659 
Q 1421 352 1421 141 
Q 1421 -256 1203 -470 
Q 986 -685 768 -685 
Q 550 -685 428 -585 
Q 307 -486 307 -320 
Q 307 -90 506 26 
Q 819 205 947 304 
Q 1075 403 1120 518 
Q 1165 634 1184 877 
Q 1197 966 1222 966 
z
M 4678 966 
Q 4864 966 5283 822 
Q 5702 678 5929 448 
Q 6157 218 6157 -12 
Q 6157 -243 6006 -406 
Q 5856 -570 5632 -570 
Q 5517 -570 5433 -509 
Q 5350 -448 5318 -355 
Q 5286 -262 5286 -77 
Q 5286 211 5132 467 
Q 4979 723 4698 890 
Q 4627 928 4627 947 
Q 4627 966 4678 966 
z
M 2016 934 
Q 2093 934 2390 790 
Q 2688 646 2867 435 
Q 3046 224 3046 -3 
Q 3046 -230 2905 -371 
Q 2765 -512 2595 -512 
Q 2426 -512 2330 -422 
Q 2234 -333 2234 -186 
Q 2234 -134 2259 -22 
Q 2285 90 2285 230 
Q 2285 614 2022 858 
Q 1984 896 1984 915 
Q 1984 934 2016 934 
z
M 3328 922 
Q 3424 922 3766 803 
Q 4109 685 4291 489 
Q 4474 294 4474 26 
Q 4474 -186 4336 -330 
Q 4198 -474 4012 -474 
Q 3827 -474 3734 -358 
Q 3642 -243 3661 -80 
Q 3680 83 3680 179 
Q 3680 397 3606 544 
Q 3533 691 3414 787 
Q 3296 883 3296 902 
Q 3296 922 3328 922 
z
" transform="scale(0.015625)"/>
        <path id="STSongti-SC-Black-8d5e" d="M 1856 3469 
Q 1818 3386 1798 3219 
Q 1747 2720 1472 2390 
Q 1197 2061 745 1840 
Q 294 1619 192 1619 
Q 160 1619 160 1644 
Q 160 1670 224 1709 
Q 742 2035 937 2419 
Q 1133 2803 1114 3469 
L 557 3469 
Q 429 3469 326 3398 
L 160 3699 
Q 314 3680 480 3680 
L 582 3680 
Q 736 4128 784 4393 
Q 832 4659 864 5178 
Q 1530 5050 1747 4934 
Q 1747 5107 1734 5293 
Q 2304 5254 2441 5212 
Q 2579 5171 2579 5116 
Q 2579 5062 2451 4992 
L 2451 4467 
L 2496 4467 
Q 2656 4730 2710 4794 
Q 2765 4858 2797 4858 
Q 2829 4858 2966 4746 
Q 3104 4634 3290 4422 
Q 3354 4666 3379 5158 
Q 3846 5037 4090 4922 
Q 4090 5107 4077 5306 
Q 4602 5286 4765 5251 
Q 4928 5216 4928 5155 
Q 4928 5094 4794 5030 
L 4794 4467 
L 5005 4467 
Q 5210 4890 5286 4890 
Q 5363 4890 5625 4666 
Q 5888 4442 5888 4349 
Q 5888 4256 5747 4256 
L 4794 4256 
L 4794 3680 
L 5274 3680 
Q 5395 3904 5475 4016 
Q 5555 4128 5606 4128 
Q 5683 4128 5952 3878 
Q 6221 3629 6221 3549 
Q 6221 3469 6118 3469 
L 5990 3469 
Q 5965 3315 5965 3187 
Q 5965 2854 6128 2768 
Q 6291 2682 6291 2563 
Q 6291 2445 6156 2342 
Q 6022 2240 5782 2198 
Q 5542 2157 4909 2157 
Q 5120 2029 5209 1965 
Q 5299 1901 5299 1840 
Q 5299 1779 5126 1696 
L 5126 1286 
Q 5126 986 5133 870 
L 5139 653 
Q 5139 602 5094 563 
Q 5050 525 4925 483 
Q 4800 442 4582 403 
Q 4890 301 5101 179 
Q 5312 58 5385 -51 
Q 5459 -160 5459 -326 
Q 5459 -493 5350 -630 
Q 5242 -768 5078 -768 
Q 4915 -768 4774 -576 
Q 4198 198 3418 499 
Q 3290 218 3043 -6 
Q 2797 -230 2390 -377 
Q 1984 -525 1376 -601 
Q 768 -678 582 -678 
Q 499 -678 499 -643 
Q 499 -608 582 -589 
Q 1824 -326 2310 106 
Q 2797 538 2797 1408 
Q 2797 1510 2790 1619 
Q 2963 1613 3321 1577 
Q 3680 1542 3728 1510 
Q 3776 1478 3776 1430 
Q 3776 1382 3725 1356 
Q 3674 1331 3661 1299 
Q 3648 1267 3600 1049 
Q 3552 832 3469 621 
Q 3904 582 4307 480 
L 4307 1824 
L 2253 1824 
Q 2221 1773 2163 1760 
L 2163 461 
Q 2163 403 2144 380 
Q 2125 358 2013 313 
Q 1901 269 1680 233 
Q 1459 198 1420 198 
Q 1382 198 1382 250 
L 1395 550 
Q 1408 864 1408 1120 
L 1408 1619 
Q 1408 2010 1395 2285 
Q 1798 2195 2138 2035 
L 2534 2035 
Q 3053 2349 3254 2576 
Q 3456 2803 3501 3098 
Q 2592 2522 2240 2202 
Q 2189 2163 2157 2163 
Q 2086 2163 1955 2457 
Q 1824 2752 1824 2777 
Q 1824 2803 1878 2825 
Q 1933 2848 1961 2883 
Q 1990 2918 1990 2989 
L 1990 3469 
L 1856 3469 
z
M 1344 4467 
L 1747 4467 
L 1747 4845 
Q 1670 4845 1596 4813 
Q 1523 4781 1344 4467 
z
M 3808 4467 
L 4090 4467 
L 4090 4768 
Q 4013 4755 3958 4681 
Q 3904 4608 3808 4467 
z
M 3251 3789 
Q 3296 3750 3366 3680 
L 4090 3680 
L 4090 4256 
L 3654 4256 
Q 3482 4026 3251 3789 
z
M 3245 4256 
L 2451 4256 
L 2451 3680 
L 2541 3680 
Q 2752 4000 2787 4045 
Q 2822 4090 2864 4090 
Q 2906 4090 2957 4045 
L 3130 3898 
Q 3213 4109 3245 4256 
z
M 1747 4256 
L 1203 4256 
Q 1018 3987 736 3680 
L 1747 3680 
L 1747 4256 
z
M 5158 3469 
Q 5158 3418 5075 3360 
L 5075 2989 
Q 5075 2835 5113 2800 
Q 5152 2765 5344 2765 
Q 5536 2765 5622 2877 
Q 5709 2989 5882 3469 
L 5158 3469 
z
M 4416 2355 
Q 4371 2458 4371 2765 
L 4371 3469 
L 4237 3469 
Q 4198 3398 4173 3219 
Q 4096 2752 3782 2512 
Q 3469 2272 2810 2035 
L 4186 2035 
Q 4371 2355 4416 2355 
z
M 3136 3469 
L 2765 3469 
Q 2733 3430 2662 3411 
L 2662 2950 
L 3520 3219 
Q 3526 3290 3526 3469 
L 3405 3469 
Q 3277 3469 3174 3398 
L 3136 3469 
z
" transform="scale(0.015625)"/>
       </defs>
       <use xlink:href="#STSongti-SC-Black-70b9"/>
       <use xlink:href="#STSongti-SC-Black-8d5e" x="99.999985"/>
       <use xlink:href="#STSongti-SC-Black-6570" x="199.999969"/>
       <use xlink:href="#STSongti-SC-Black-78" x="299.999954"/>
       <use xlink:href="#STSongti-SC-Black-31" x="345.199951"/>
       <use xlink:href="#STSongti-SC-Black-30" x="392.099945"/>
      </g>
     </g>
    </g>
    <g id="xtick_5">
     <g id="line2d_5">
      <g>
       <use xlink:href="#m7162cbe541" x="371.432727" y="307.584" style="stroke: #000000; stroke-width: 0.8"/>
      </g>
     </g>
     <g id="text_5">
      <!-- 投币数x10 -->
      <g transform="translate(349.481946 322.623062) scale(0.1 -0.1)">
       <defs>
        <path id="STSongti-SC-Black-6295" d="M 1248 3558 
L 602 3558 
Q 448 3558 326 3520 
L 218 3795 
Q 365 3770 538 3770 
L 1248 3770 
L 1248 4531 
Q 1248 4922 1222 5222 
Q 1523 5210 1804 5168 
Q 2086 5126 2137 5100 
Q 2189 5075 2189 5037 
Q 2189 4960 2029 4896 
L 2029 3770 
L 2131 3770 
Q 2323 4109 2368 4173 
Q 2413 4237 2461 4237 
Q 2509 4237 2701 4073 
Q 2893 3910 3001 3830 
Q 3110 3750 3110 3674 
Q 3110 3558 2970 3558 
L 2029 3558 
L 2029 2758 
L 2502 2899 
Q 2701 2957 2729 2957 
Q 2758 2957 2758 2938 
Q 2758 2893 2617 2809 
Q 2477 2726 2029 2432 
L 2029 205 
Q 2029 -141 1929 -307 
Q 1830 -474 1577 -557 
Q 1325 -640 1152 -640 
Q 1011 -640 1011 -512 
Q 1005 -269 893 -150 
Q 781 -32 416 83 
Q 333 109 333 128 
Q 333 147 454 144 
Q 576 141 765 141 
Q 954 141 1069 166 
Q 1184 192 1216 253 
Q 1248 314 1248 442 
L 1248 1914 
Q 762 1581 656 1488 
Q 550 1395 521 1395 
Q 493 1395 473 1424 
Q 454 1453 342 1737 
Q 230 2022 147 2291 
Q 672 2368 1248 2534 
L 1248 3558 
z
M 3942 4781 
L 4410 4781 
Q 4467 4902 4531 5011 
Q 4595 5120 4620 5139 
Q 4646 5158 4678 5158 
Q 4762 5158 4998 5011 
Q 5235 4864 5379 4768 
Q 5523 4672 5523 4589 
Q 5523 4506 5242 4429 
L 5242 3546 
Q 5242 3411 5350 3411 
Q 5523 3411 5626 3494 
Q 5670 3533 5740 3533 
Q 5811 3533 6016 3347 
Q 6221 3162 6221 3014 
Q 6221 2867 6064 2825 
Q 5907 2784 5427 2784 
Q 4947 2784 4806 2819 
Q 4666 2854 4586 2972 
Q 4506 3091 4506 3290 
L 4506 4570 
L 3910 4570 
Q 3878 4506 3878 4454 
Q 3878 3878 3808 3548 
Q 3738 3219 3552 2998 
Q 3366 2778 2966 2586 
Q 2566 2394 2464 2394 
Q 2445 2394 2445 2413 
Q 2445 2432 2509 2483 
Q 2797 2714 2921 2883 
Q 3046 3053 3097 3325 
Q 3149 3597 3149 4067 
Q 3149 4538 3130 5056 
Q 3629 4922 3942 4781 
z
M 4237 243 
Q 3520 -250 2765 -477 
Q 2010 -704 1837 -704 
Q 1798 -704 1798 -681 
Q 1798 -659 1894 -627 
Q 3149 -147 3885 627 
Q 3366 1293 3251 2246 
Q 3098 2246 2989 2176 
L 2822 2477 
Q 2976 2458 3142 2458 
L 4717 2458 
Q 4864 2726 4918 2726 
Q 4973 2726 5325 2560 
Q 5677 2394 5792 2317 
Q 5907 2240 5907 2182 
Q 5907 2112 5788 2073 
Q 5670 2035 5616 1968 
Q 5562 1901 5466 1702 
Q 5222 1178 4794 730 
Q 5382 384 6202 218 
Q 6272 198 6272 176 
Q 6272 154 6202 122 
Q 5779 -77 5555 -531 
Q 5523 -608 5446 -608 
Q 5402 -608 5242 -515 
Q 5082 -422 4771 -195 
Q 4461 32 4237 243 
z
M 4275 1107 
Q 4627 1619 4794 2246 
L 3379 2246 
Q 3763 1568 4275 1107 
z
" transform="scale(0.015625)"/>
        <path id="STSongti-SC-Black-5e01" d="M 2880 4192 
Q 1517 4122 563 4122 
Q 467 4122 467 4173 
Q 467 4224 544 4230 
Q 1971 4397 3292 4685 
Q 4614 4973 5267 5248 
Q 5542 4960 5724 4749 
Q 5907 4538 5942 4480 
Q 5978 4422 5978 4371 
Q 5978 4320 5907 4320 
Q 5875 4320 5814 4339 
Q 5754 4358 5606 4358 
Q 4723 4301 3840 4250 
Q 3853 4192 3680 4109 
L 3680 3200 
L 4595 3200 
Q 4627 3264 4691 3417 
Q 4755 3571 4793 3619 
Q 4832 3667 4905 3667 
Q 4979 3667 5260 3488 
Q 5542 3309 5673 3229 
Q 5805 3149 5805 3059 
Q 5805 2925 5562 2822 
L 5562 845 
Q 5562 506 5389 355 
Q 5216 205 4950 153 
Q 4685 102 4589 102 
Q 4493 102 4457 131 
Q 4422 160 4416 250 
Q 4390 480 4265 592 
Q 4141 704 3834 800 
Q 3744 832 3744 857 
Q 3744 883 3859 883 
Q 4282 883 4467 908 
Q 4653 934 4701 982 
Q 4749 1030 4749 1139 
L 4749 2989 
L 3680 2989 
L 3680 45 
Q 3680 -173 3689 -323 
Q 3699 -474 3699 -502 
Q 3699 -531 3673 -556 
Q 3648 -582 3497 -643 
Q 3347 -704 3129 -736 
Q 2912 -768 2883 -768 
Q 2854 -768 2854 -730 
L 2867 -442 
Q 2880 -269 2880 -26 
L 2880 2989 
L 1997 2989 
Q 1990 2797 1856 2752 
L 1856 410 
Q 1856 346 1837 320 
Q 1818 294 1712 246 
Q 1606 198 1363 150 
Q 1120 102 1069 102 
Q 1018 102 1018 154 
L 1030 442 
Q 1043 627 1043 838 
L 1043 3194 
Q 1043 3494 1024 3648 
Q 1434 3526 1901 3200 
L 2880 3200 
L 2880 4192 
z
" transform="scale(0.015625)"/>
       </defs>
       <use xlink:href="#STSongti-SC-Black-6295"/>
       <use xlink:href="#STSongti-SC-Black-5e01" x="99.999985"/>
       <use xlink:href="#STSongti-SC-Black-6570" x="199.999969"/>
       <use xlink:href="#STSongti-SC-Black-78" x="299.999954"/>
       <use xlink:href="#STSongti-SC-Black-31" x="345.199951"/>
       <use xlink:href="#STSongti-SC-Black-30" x="392.099945"/>
      </g>
     </g>
    </g>
   </g>
   <g id="matplotlib.axis_2">
    <g id="ytick_1">
     <g id="line2d_6">
      <defs>
       <path id="m4a8cb3e157" d="M 0 0 
L -3.5 0 
" style="stroke: #000000; stroke-width: 0.8"/>
      </defs>
      <g>
       <use xlink:href="#m4a8cb3e157" x="57.6" y="307.584" style="stroke: #000000; stroke-width: 0.8"/>
      </g>
     </g>
     <g id="text_6">
      <!-- 0 -->
      <g transform="translate(45.909375 311.184) scale(0.1 -0.1)">
       <use xlink:href="#STSongti-SC-Black-30"/>
      </g>
     </g>
    </g>
    <g id="ytick_2">
     <g id="line2d_7">
      <g>
       <use xlink:href="#m4a8cb3e157" x="57.6" y="263.333248" style="stroke: #000000; stroke-width: 0.8"/>
      </g>
     </g>
     <g id="text_7">
      <!-- 50 -->
      <g transform="translate(41.21875 266.933248) scale(0.1 -0.1)">
       <defs>
        <path id="STSongti-SC-Black-35" d="M 2490 3763 
L 1536 3763 
Q 1286 3763 1094 3760 
Q 902 3757 877 3744 
L 819 2880 
Q 960 2950 1145 2982 
Q 1331 3014 1478 3014 
Q 1805 3014 2051 2908 
Q 2298 2803 2464 2627 
Q 2630 2451 2713 2220 
Q 2797 1990 2797 1741 
Q 2797 1414 2662 1145 
Q 2528 877 2310 685 
Q 2093 493 1817 387 
Q 1542 282 1254 282 
Q 1107 282 934 310 
Q 762 339 611 393 
Q 461 448 361 528 
Q 262 608 262 717 
Q 262 794 313 854 
Q 365 915 435 950 
Q 506 986 582 986 
Q 659 986 710 941 
Q 864 813 963 723 
Q 1062 634 1139 576 
Q 1216 518 1286 492 
Q 1357 467 1453 467 
Q 1632 467 1766 550 
Q 1901 634 1993 778 
Q 2086 922 2134 1114 
Q 2182 1306 2182 1523 
Q 2182 1728 2118 1897 
Q 2054 2067 1939 2192 
Q 1824 2317 1667 2387 
Q 1510 2458 1318 2458 
Q 1101 2458 957 2410 
Q 813 2362 723 2272 
L 614 2272 
L 736 4384 
L 1542 4384 
Q 1792 4384 1952 4384 
Q 2112 4384 2205 4400 
Q 2298 4416 2336 4451 
Q 2374 4486 2387 4557 
L 2547 4557 
L 2490 3763 
z
" transform="scale(0.015625)"/>
       </defs>
       <use xlink:href="#STSongti-SC-Black-35"/>
       <use xlink:href="#STSongti-SC-Black-30" x="46.899994"/>
      </g>
     </g>
    </g>
    <g id="ytick_3">
     <g id="line2d_8">
      <g>
       <use xlink:href="#m4a8cb3e157" x="57.6" y="219.082495" style="stroke: #000000; stroke-width: 0.8"/>
      </g>
     </g>
     <g id="text_8">
      <!-- 100 -->
      <g transform="translate(36.528125 222.682495) scale(0.1 -0.1)">
       <use xlink:href="#STSongti-SC-Black-31"/>
       <use xlink:href="#STSongti-SC-Black-30" x="46.899994"/>
       <use xlink:href="#STSongti-SC-Black-30" x="93.799988"/>
      </g>
     </g>
    </g>
    <g id="ytick_4">
     <g id="line2d_9">
      <g>
       <use xlink:href="#m4a8cb3e157" x="57.6" y="174.831743" style="stroke: #000000; stroke-width: 0.8"/>
      </g>
     </g>
     <g id="text_9">
      <!-- 150 -->
      <g transform="translate(36.528125 178.431743) scale(0.1 -0.1)">
       <use xlink:href="#STSongti-SC-Black-31"/>
       <use xlink:href="#STSongti-SC-Black-35" x="46.899994"/>
       <use xlink:href="#STSongti-SC-Black-30" x="93.799988"/>
      </g>
     </g>
    </g>
    <g id="ytick_5">
     <g id="line2d_10">
      <g>
       <use xlink:href="#m4a8cb3e157" x="57.6" y="130.580991" style="stroke: #000000; stroke-width: 0.8"/>
      </g>
     </g>
     <g id="text_10">
      <!-- 200 -->
      <g transform="translate(36.528125 134.180991) scale(0.1 -0.1)">
       <defs>
        <path id="STSongti-SC-Black-32" d="M 2726 365 
Q 2496 371 2227 377 
Q 1958 384 1542 384 
Q 1120 384 777 381 
Q 435 378 211 365 
Q 230 518 262 659 
Q 294 800 377 957 
Q 461 1114 605 1299 
Q 749 1485 992 1734 
L 1229 1978 
Q 1478 2227 1625 2412 
Q 1773 2598 1849 2748 
Q 1926 2899 1945 3033 
Q 1965 3168 1965 3322 
Q 1965 3622 1779 3801 
Q 1594 3981 1280 3981 
Q 954 3981 746 3769 
Q 538 3558 461 3162 
L 262 3238 
Q 352 3827 694 4137 
Q 1037 4448 1549 4448 
Q 1779 4448 1984 4384 
Q 2189 4320 2342 4195 
Q 2496 4070 2589 3888 
Q 2682 3706 2682 3469 
Q 2682 3219 2592 3008 
Q 2502 2797 2348 2608 
Q 2195 2419 1993 2246 
Q 1792 2074 1574 1907 
L 1382 1754 
Q 1216 1619 1030 1427 
Q 845 1235 685 979 
L 2074 979 
Q 2234 979 2317 1011 
Q 2400 1043 2448 1116 
Q 2496 1190 2531 1302 
Q 2566 1414 2624 1568 
L 2822 1568 
L 2726 365 
z
" transform="scale(0.015625)"/>
       </defs>
       <use xlink:href="#STSongti-SC-Black-32"/>
       <use xlink:href="#STSongti-SC-Black-30" x="46.899994"/>
       <use xlink:href="#STSongti-SC-Black-30" x="93.799988"/>
      </g>
     </g>
    </g>
    <g id="ytick_6">
     <g id="line2d_11">
      <g>
       <use xlink:href="#m4a8cb3e157" x="57.6" y="86.330238" style="stroke: #000000; stroke-width: 0.8"/>
      </g>
     </g>
     <g id="text_11">
      <!-- 250 -->
      <g transform="translate(36.528125 89.930238) scale(0.1 -0.1)">
       <use xlink:href="#STSongti-SC-Black-32"/>
       <use xlink:href="#STSongti-SC-Black-35" x="46.899994"/>
       <use xlink:href="#STSongti-SC-Black-30" x="93.799988"/>
      </g>
     </g>
    </g>
    <g id="ytick_7">
     <g id="line2d_12">
      <g>
       <use xlink:href="#m4a8cb3e157" x="57.6" y="42.079486" style="stroke: #000000; stroke-width: 0.8"/>
      </g>
     </g>
     <g id="text_12">
      <!-- 300 -->
      <g transform="translate(36.528125 45.679486) scale(0.1 -0.1)">
       <defs>
        <path id="STSongti-SC-Black-33" d="M 576 3430 
L 474 3526 
Q 550 3731 646 3900 
Q 742 4070 876 4192 
Q 1011 4314 1193 4381 
Q 1376 4448 1619 4448 
Q 1779 4448 1939 4409 
Q 2099 4371 2224 4288 
Q 2349 4205 2425 4083 
Q 2502 3962 2502 3789 
Q 2502 3539 2281 3289 
Q 2061 3040 1683 2822 
Q 1939 2842 2153 2771 
Q 2368 2701 2518 2560 
Q 2669 2419 2752 2214 
Q 2835 2010 2835 1760 
Q 2835 1446 2707 1174 
Q 2579 902 2355 704 
Q 2131 506 1833 394 
Q 1536 282 1203 282 
Q 762 282 518 403 
Q 275 525 275 717 
Q 275 787 323 854 
Q 371 922 457 950 
Q 544 979 653 950 
Q 762 922 890 800 
Q 986 704 1053 640 
Q 1120 576 1174 541 
Q 1229 506 1277 490 
Q 1325 474 1389 474 
Q 1581 474 1725 570 
Q 1869 666 1965 826 
Q 2061 986 2105 1184 
Q 2150 1382 2150 1587 
Q 2150 1997 1955 2198 
Q 1760 2400 1498 2400 
Q 1331 2400 1206 2345 
Q 1082 2291 954 2182 
L 845 2330 
Q 909 2387 979 2444 
Q 1050 2502 1126 2560 
Q 1478 2822 1676 3030 
Q 1875 3238 1875 3437 
Q 1875 3686 1731 3824 
Q 1587 3962 1306 3962 
Q 1101 3962 902 3843 
Q 704 3725 576 3430 
z
" transform="scale(0.015625)"/>
       </defs>
       <use xlink:href="#STSongti-SC-Black-33"/>
       <use xlink:href="#STSongti-SC-Black-30" x="46.899994"/>
       <use xlink:href="#STSongti-SC-Black-30" x="93.799988"/>
      </g>
     </g>
    </g>
    <g id="text_13">
     <!-- 视频时长/秒 -->
     <g transform="translate(31.1375 202.028) rotate(-90) scale(0.1 -0.1)">
      <use xlink:href="#STSongti-SC-Black-89c6"/>
      <use xlink:href="#STSongti-SC-Black-9891" x="99.999985"/>
      <use xlink:href="#STSongti-SC-Black-65f6" x="199.999969"/>
      <use xlink:href="#STSongti-SC-Black-957f" x="299.999954"/>
      <use xlink:href="#STSongti-SC-Black-2f" x="399.999939"/>
      <use xlink:href="#STSongti-SC-Black-79d2" x="449.999924"/>
     </g>
    </g>
   </g>
   <g id="patch_5">
    <path d="M 57.6 307.584 
L 57.6 41.472 
" style="fill: none; stroke: #000000; stroke-width: 0.8; stroke-linejoin: miter; stroke-linecap: square"/>
   </g>
   <g id="patch_6">
    <path d="M 414.72 307.584 
L 414.72 41.472 
" style="fill: none; stroke: #000000; stroke-width: 0.8; stroke-linejoin: miter; stroke-linecap: square"/>
   </g>
   <g id="patch_7">
    <path d="M 57.6 307.584 
L 414.72 307.584 
" style="fill: none; stroke: #000000; stroke-width: 0.8; stroke-linejoin: miter; stroke-linecap: square"/>
   </g>
   <g id="patch_8">
    <path d="M 57.6 41.472 
L 414.72 41.472 
" style="fill: none; stroke: #000000; stroke-width: 0.8; stroke-linejoin: miter; stroke-linecap: square"/>
   </g>
   <g id="text_14">
    <!-- 286.368 -->
    <g transform="translate(85.720085 49.753375) scale(0.1 -0.1)">
     <defs>
      <path id="STSongti-SC-Black-38" d="M 1069 2368 
Q 282 2758 282 3424 
Q 282 3622 368 3804 
Q 454 3987 617 4131 
Q 781 4275 1005 4361 
Q 1229 4448 1510 4448 
Q 1760 4448 1968 4377 
Q 2176 4307 2326 4185 
Q 2477 4064 2560 3901 
Q 2643 3738 2643 3552 
Q 2643 3366 2588 3232 
Q 2534 3098 2438 2992 
Q 2342 2886 2201 2793 
Q 2061 2701 1888 2598 
Q 2202 2445 2381 2297 
Q 2560 2150 2646 2006 
Q 2733 1862 2752 1718 
Q 2771 1574 2771 1434 
Q 2771 1190 2665 979 
Q 2560 768 2384 614 
Q 2208 461 1971 371 
Q 1734 282 1466 282 
Q 1184 282 950 362 
Q 717 442 550 576 
Q 384 710 294 892 
Q 205 1075 205 1280 
Q 205 1434 246 1584 
Q 288 1734 390 1875 
Q 493 2016 659 2137 
Q 826 2259 1069 2368 
z
M 1683 2707 
Q 1920 2854 2022 3046 
Q 2125 3238 2125 3526 
Q 2125 3827 1968 4019 
Q 1811 4211 1472 4211 
Q 1158 4211 1011 4035 
Q 864 3859 864 3597 
Q 864 3334 1046 3126 
Q 1229 2918 1683 2707 
z
M 1254 2266 
Q 1107 2176 1011 2077 
Q 915 1978 860 1866 
Q 806 1754 784 1622 
Q 762 1491 762 1331 
Q 762 941 976 710 
Q 1190 480 1517 480 
Q 2163 480 2163 1235 
Q 2163 1414 2108 1555 
Q 2054 1696 1942 1817 
Q 1830 1939 1657 2048 
Q 1485 2157 1254 2266 
z
" transform="scale(0.015625)"/>
      <path id="STSongti-SC-Black-36" d="M 2458 4467 
L 2509 4346 
Q 2138 4141 1846 3926 
Q 1555 3712 1356 3430 
Q 1158 3149 1056 2761 
Q 954 2374 954 1824 
Q 954 1645 973 1414 
Q 992 1184 1053 976 
Q 1114 768 1235 627 
Q 1357 486 1562 486 
Q 1824 486 1987 739 
Q 2150 992 2150 1562 
Q 2150 2042 1996 2282 
Q 1843 2522 1555 2522 
Q 1434 2522 1318 2470 
L 1267 2637 
Q 1370 2682 1482 2704 
Q 1594 2726 1747 2726 
Q 2278 2726 2560 2425 
Q 2842 2125 2842 1626 
Q 2842 1318 2736 1072 
Q 2630 826 2451 650 
Q 2272 474 2035 378 
Q 1798 282 1530 282 
Q 1190 282 944 403 
Q 698 525 534 739 
Q 371 954 294 1242 
Q 218 1530 218 1862 
Q 218 2426 394 2864 
Q 570 3302 874 3622 
Q 1178 3942 1587 4150 
Q 1997 4358 2458 4467 
z
" transform="scale(0.015625)"/>
      <path id="STSongti-SC-Black-2e" d="M 704 294 
Q 538 294 422 409 
Q 307 525 307 691 
Q 307 858 422 973 
Q 538 1088 704 1088 
Q 870 1088 985 973 
Q 1101 858 1101 691 
Q 1101 525 985 409 
Q 870 294 704 294 
z
" transform="scale(0.015625)"/>
     </defs>
     <use xlink:href="#STSongti-SC-Black-32"/>
     <use xlink:href="#STSongti-SC-Black-38" x="46.899994"/>
     <use xlink:href="#STSongti-SC-Black-36" x="93.799988"/>
     <use xlink:href="#STSongti-SC-Black-2e" x="140.699982"/>
     <use xlink:href="#STSongti-SC-Black-33" x="162.599976"/>
     <use xlink:href="#STSongti-SC-Black-36" x="209.499969"/>
     <use xlink:href="#STSongti-SC-Black-38" x="256.399963"/>
    </g>
   </g>
   <g id="text_15">
    <!-- 155 -->
    <g transform="translate(93.851335 166.016043) scale(0.1 -0.1)">
     <use xlink:href="#STSongti-SC-Black-31"/>
     <use xlink:href="#STSongti-SC-Black-35" x="46.899994"/>
     <use xlink:href="#STSongti-SC-Black-35" x="93.799988"/>
    </g>
   </g>
   <g id="text_16">
    <!-- 样本整体统计数据 -->
    <g transform="translate(188.16 35.472) scale(0.12 -0.12)">
     <defs>
      <path id="STSongti-SC-Black-6837" d="M 5133 1261 
Q 5197 1382 5315 1568 
Q 5434 1754 5456 1776 
Q 5478 1798 5504 1798 
Q 5574 1798 5939 1488 
Q 6304 1178 6304 1114 
Q 6304 1050 6182 1050 
L 4589 1050 
L 4589 173 
Q 4589 -141 4595 -262 
L 4602 -499 
Q 4602 -550 4573 -572 
Q 4544 -595 4368 -643 
Q 4192 -691 4009 -691 
Q 3827 -691 3795 -672 
Q 3763 -653 3763 -585 
Q 3763 -518 3776 -304 
Q 3789 -90 3789 230 
L 3789 1050 
L 2758 1050 
Q 2630 1050 2528 979 
L 2362 1280 
Q 2515 1261 2682 1261 
L 3789 1261 
L 3789 2368 
L 3008 2368 
Q 3021 2298 3021 2259 
Q 3021 2067 2886 1936 
Q 2752 1805 2608 1805 
Q 2464 1805 2371 1891 
Q 2278 1978 2278 2176 
Q 2278 2701 2016 2874 
L 2016 -480 
Q 2016 -538 1977 -570 
Q 1939 -602 1811 -637 
Q 1683 -672 1523 -672 
Q 1363 -672 1318 -659 
Q 1274 -646 1274 -589 
L 1286 -326 
Q 1293 -58 1293 269 
L 1293 1946 
Q 1043 1510 656 1139 
Q 269 768 211 768 
Q 205 768 205 774 
Q 205 800 256 877 
Q 691 1478 921 2124 
Q 1152 2771 1274 3571 
L 646 3571 
Q 518 3571 416 3501 
L 250 3802 
Q 403 3782 570 3782 
L 1293 3782 
L 1293 4557 
Q 1293 4979 1274 5286 
Q 1530 5280 1811 5241 
Q 2093 5203 2141 5174 
Q 2189 5146 2189 5107 
Q 2189 5024 2016 4947 
L 2016 3782 
L 2112 3782 
Q 2170 3898 2272 4058 
Q 2374 4218 2393 4237 
Q 2413 4256 2441 4256 
Q 2470 4256 2633 4131 
Q 2797 4006 3021 3770 
L 4365 3770 
Q 4634 4570 4742 5306 
Q 5792 5043 5792 4902 
Q 5792 4845 5680 4816 
Q 5568 4787 5334 4579 
Q 5101 4371 4538 3770 
L 5069 3770 
Q 5120 3866 5229 4032 
Q 5338 4198 5357 4217 
Q 5376 4237 5408 4237 
Q 5504 4237 5824 3968 
Q 6144 3699 6144 3628 
Q 6144 3558 6029 3558 
L 4698 3558 
Q 4659 3514 4589 3482 
L 4589 2579 
L 4890 2579 
Q 5107 2995 5142 3040 
Q 5178 3085 5216 3085 
Q 5306 3085 5632 2787 
Q 5958 2490 5958 2429 
Q 5958 2368 5843 2368 
L 4589 2368 
L 4589 1261 
L 5133 1261 
z
M 3789 2579 
L 3789 3558 
L 2650 3558 
Q 2522 3558 2419 3488 
L 2374 3571 
L 2016 3571 
L 2016 2989 
Q 2688 2893 2912 2579 
L 3789 2579 
z
M 2970 5126 
Q 3501 5126 3830 4931 
Q 4160 4736 4160 4397 
Q 4160 4198 4025 4064 
Q 3891 3930 3680 3930 
Q 3392 3930 3373 4269 
Q 3334 4851 2963 5037 
Q 2880 5082 2880 5104 
Q 2880 5126 2970 5126 
z
" transform="scale(0.015625)"/>
      <path id="STSongti-SC-Black-672c" d="M 3738 3827 
L 4928 3827 
Q 4966 3898 5110 4125 
Q 5254 4352 5283 4377 
Q 5312 4403 5344 4403 
Q 5427 4403 5792 4070 
Q 6157 3738 6157 3677 
Q 6157 3616 6029 3616 
L 4064 3616 
Q 4422 2726 4937 2208 
Q 5453 1690 6342 1376 
Q 6426 1344 6426 1321 
Q 6426 1299 6266 1251 
Q 6106 1203 5955 1062 
Q 5805 922 5651 666 
Q 5619 608 5568 608 
Q 5453 608 4925 1126 
Q 4397 1645 4160 2224 
Q 3923 2803 3885 3616 
L 3738 3616 
L 3738 1197 
L 3917 1197 
L 4096 1504 
Q 4160 1619 4214 1619 
Q 4269 1619 4560 1369 
Q 4851 1120 4851 1053 
Q 4851 986 4691 986 
L 3738 986 
L 3738 -416 
Q 3738 -493 3696 -534 
Q 3654 -576 3446 -630 
Q 3238 -685 2982 -685 
Q 2925 -685 2925 -614 
L 2931 -352 
Q 2944 -83 2944 243 
L 2944 986 
L 2029 986 
Q 1901 986 1798 915 
L 1632 1216 
Q 1786 1197 1952 1197 
L 2944 1197 
L 2944 3264 
Q 2662 2362 2169 1802 
Q 1677 1242 1053 909 
Q 429 576 320 576 
Q 288 576 288 608 
Q 288 640 365 691 
Q 1050 1184 1478 1869 
Q 1907 2554 2195 3616 
L 806 3616 
Q 678 3616 576 3546 
L 410 3846 
Q 563 3827 730 3827 
L 2944 3827 
L 2944 4570 
Q 2944 4992 2925 5299 
Q 3187 5293 3491 5257 
Q 3795 5222 3872 5190 
Q 3949 5158 3949 5114 
Q 3949 5043 3738 4947 
L 3738 3827 
z
" transform="scale(0.015625)"/>
      <path id="STSongti-SC-Black-6574" d="M 1658 4275 
L 736 4275 
Q 608 4275 506 4205 
L 339 4506 
Q 493 4486 659 4486 
L 1658 4486 
Q 1658 4922 1638 5229 
Q 1850 5222 2096 5190 
Q 2342 5158 2390 5132 
Q 2438 5107 2438 5069 
Q 2438 5005 2298 4947 
L 2298 4486 
L 2726 4486 
Q 2797 4614 2886 4752 
Q 2976 4890 2995 4906 
Q 3014 4922 3040 4922 
Q 3110 4922 3385 4691 
Q 3661 4461 3661 4368 
Q 3661 4275 3526 4275 
L 2298 4275 
L 2298 3878 
L 2566 3878 
Q 2643 4038 2707 4099 
Q 2771 4160 2860 4160 
Q 2950 4160 3225 3990 
Q 3501 3821 3501 3750 
Q 3501 3680 3334 3610 
L 3334 3315 
Q 3334 3162 3354 2976 
Q 3808 3898 3878 5222 
Q 4230 5171 4508 5107 
Q 4787 5043 4828 5014 
Q 4870 4986 4870 4938 
Q 4870 4890 4761 4861 
Q 4653 4832 4579 4649 
Q 4506 4467 4410 4250 
L 5178 4250 
Q 5312 4531 5376 4620 
Q 5440 4710 5478 4710 
Q 5549 4710 5878 4460 
Q 6208 4211 6208 4124 
Q 6208 4038 6061 4038 
L 5421 4038 
Q 5664 3974 5782 3926 
Q 5901 3878 5901 3827 
Q 5901 3776 5792 3718 
Q 5683 3661 5574 3424 
Q 5370 2989 5088 2669 
Q 5421 2509 6202 2310 
Q 6317 2285 6317 2246 
Q 6317 2208 6208 2169 
Q 6099 2131 5945 1987 
Q 5792 1843 5737 1718 
Q 5683 1594 5625 1594 
Q 5568 1594 5485 1638 
Q 5402 1683 5139 1875 
Q 4877 2067 4666 2266 
Q 4218 1926 3667 1740 
Q 3117 1555 2976 1555 
Q 2931 1555 2931 1580 
Q 2931 1606 3027 1645 
Q 3827 1958 4365 2618 
Q 4090 3008 3968 3475 
Q 3808 3232 3552 2976 
Q 3296 2720 3258 2720 
Q 3251 2720 3251 2733 
Q 3251 2771 3322 2912 
Q 3264 2861 3081 2819 
Q 2899 2778 2746 2778 
Q 2643 2778 2637 2893 
L 2298 2893 
L 2298 2682 
Q 2803 2650 3075 2512 
Q 3347 2374 3347 2185 
Q 3347 1997 3235 1878 
Q 3123 1760 2970 1760 
Q 2867 1760 2752 1984 
Q 2509 2451 2298 2573 
L 2298 1690 
Q 2298 1466 1837 1466 
Q 1702 1466 1670 1491 
Q 1638 1517 1638 1587 
L 1658 2317 
Q 1293 1894 800 1628 
Q 307 1363 224 1363 
Q 198 1363 198 1385 
Q 198 1408 269 1453 
Q 1024 1978 1427 2893 
L 1306 2893 
Q 1286 2765 1129 2723 
Q 973 2682 861 2682 
Q 749 2682 688 2698 
Q 627 2714 636 2829 
Q 646 2944 646 3270 
L 646 3565 
Q 646 3802 627 4070 
Q 1094 3968 1299 3878 
L 1658 3878 
L 1658 4275 
z
M 4979 4038 
L 4307 4038 
Q 4237 3898 4083 3642 
Q 4320 3219 4614 2976 
Q 4915 3469 4979 4038 
z
M 1658 3104 
L 1658 3667 
L 1370 3667 
Q 1350 3603 1312 3584 
L 1312 3104 
L 1658 3104 
z
M 2298 3667 
L 2298 3104 
L 2637 3104 
L 2637 3667 
L 2298 3667 
z
M 2938 1178 
L 1139 1178 
Q 1011 1178 909 1107 
L 742 1408 
Q 896 1389 1062 1389 
L 4717 1389 
Q 4781 1517 4867 1657 
Q 4954 1798 4982 1817 
Q 5011 1837 5043 1837 
Q 5120 1837 5427 1593 
Q 5734 1350 5734 1264 
Q 5734 1178 5587 1178 
L 3827 1178 
Q 3840 1120 3712 1037 
L 3712 614 
L 4480 614 
Q 4640 902 4707 995 
Q 4774 1088 4813 1088 
Q 4896 1088 5209 838 
Q 5523 589 5523 496 
Q 5523 403 5363 403 
L 3712 403 
L 3712 -320 
L 5088 -320 
Q 5203 -102 5312 38 
Q 5421 179 5472 179 
Q 5549 179 5881 -89 
Q 6214 -358 6214 -444 
Q 6214 -531 6029 -531 
L 627 -531 
Q 499 -531 397 -602 
L 230 -301 
Q 384 -320 550 -320 
L 1446 -320 
L 1446 301 
Q 1446 723 1427 1030 
Q 1658 1018 1923 986 
Q 2189 954 2246 922 
Q 2304 890 2304 832 
Q 2304 774 2163 710 
L 2163 -320 
L 2938 -320 
L 2938 1178 
z
" transform="scale(0.015625)"/>
      <path id="STSongti-SC-Black-4f53" d="M 3130 3546 
L 2240 3546 
Q 2112 3546 2010 3475 
L 1843 3776 
Q 1997 3757 2163 3757 
L 3450 3757 
L 3450 4557 
Q 3450 4979 3430 5286 
Q 3725 5261 4006 5213 
Q 4288 5165 4349 5136 
Q 4410 5107 4410 5062 
Q 4410 4979 4205 4902 
L 4205 3757 
L 4954 3757 
Q 5146 4109 5222 4217 
Q 5299 4326 5353 4326 
Q 5408 4326 5625 4163 
Q 5843 4000 6019 3833 
Q 6195 3667 6195 3606 
Q 6195 3546 6054 3546 
L 4435 3546 
Q 4557 2803 5027 2192 
Q 5498 1581 6246 1165 
Q 6323 1120 6323 1097 
Q 6323 1075 6188 1008 
Q 6054 941 5936 829 
Q 5818 717 5690 512 
Q 5645 442 5600 442 
Q 5498 442 5133 925 
Q 4768 1408 4528 2061 
Q 4288 2714 4237 3546 
L 4205 3546 
L 4205 864 
L 4333 864 
L 4512 1146 
Q 4582 1248 4640 1248 
Q 4698 1248 4950 1014 
Q 5203 781 5203 717 
Q 5203 653 5069 653 
L 4205 653 
L 4205 -416 
Q 4205 -499 4163 -537 
Q 4122 -576 3920 -630 
Q 3718 -685 3488 -685 
Q 3430 -685 3430 -614 
L 3443 -352 
Q 3450 -83 3450 243 
L 3450 653 
L 2790 653 
Q 2662 653 2560 582 
L 2394 883 
Q 2547 864 2714 864 
L 3450 864 
L 3450 2381 
Q 2829 1299 1850 678 
L 1850 -397 
Q 1850 -448 1830 -477 
Q 1811 -506 1680 -550 
Q 1549 -595 1353 -627 
Q 1158 -659 1082 -659 
Q 1037 -659 1037 -595 
L 1056 6 
Q 1062 288 1062 538 
L 1062 2630 
Q 832 2330 553 2045 
Q 275 1760 218 1760 
Q 205 1760 205 1785 
Q 205 1811 250 1888 
Q 730 2746 954 3546 
Q 1178 4346 1293 5318 
Q 1517 5261 1933 5123 
Q 2349 4986 2397 4947 
Q 2445 4909 2445 4870 
Q 2445 4800 2352 4781 
Q 2259 4762 2182 4630 
Q 2106 4499 1930 4118 
Q 1754 3738 1587 3450 
Q 1990 3341 1990 3232 
Q 1990 3162 1850 3098 
L 1850 870 
Q 2784 1920 3130 3546 
z
" transform="scale(0.015625)"/>
      <path id="STSongti-SC-Black-7edf" d="M 3475 5242 
Q 4038 5242 4262 5110 
Q 4486 4979 4486 4736 
Q 4486 4493 4310 4355 
Q 4134 4218 3968 4218 
Q 3853 4218 3760 4317 
Q 3667 4416 3638 4611 
Q 3610 4806 3504 4944 
Q 3398 5082 3251 5142 
Q 3104 5203 3104 5216 
Q 3104 5242 3475 5242 
z
M 1395 2854 
Q 838 2682 550 2515 
Q 512 2490 464 2490 
Q 416 2490 377 2522 
Q 339 2554 275 2838 
Q 211 3123 211 3162 
Q 211 3277 326 3309 
Q 442 3341 496 3398 
Q 550 3456 662 3699 
Q 774 3942 899 4345 
Q 1024 4749 1101 5178 
Q 1376 5075 1670 4937 
Q 1965 4800 2013 4755 
Q 2061 4710 2061 4656 
Q 2061 4602 1933 4570 
Q 1805 4538 1465 4074 
Q 1126 3610 762 3187 
L 1594 3206 
Q 1786 3590 1933 4006 
Q 2240 3872 2509 3731 
Q 2778 3590 2810 3555 
Q 2842 3520 2842 3488 
Q 2842 3411 2726 3405 
Q 2650 3398 2547 3318 
Q 2445 3238 2317 3091 
L 1843 2566 
Q 1491 2182 1056 1728 
Q 1888 1773 2496 1773 
Q 2624 1773 2624 1753 
Q 2624 1734 2502 1696 
Q 1094 1267 691 1056 
Q 602 1011 534 1011 
Q 467 1011 444 1040 
Q 422 1069 339 1385 
Q 256 1702 256 1756 
Q 256 1811 285 1830 
Q 314 1850 416 1856 
Q 685 1882 854 2058 
Q 1024 2234 1395 2854 
z
M 3386 3974 
L 2688 3974 
Q 2560 3974 2458 3904 
L 2291 4205 
Q 2445 4186 2611 4186 
L 4934 4186 
Q 5146 4550 5216 4640 
Q 5286 4730 5331 4730 
Q 5402 4730 5747 4435 
Q 6093 4141 6093 4057 
Q 6093 3974 5965 3974 
L 4557 3974 
Q 4563 3891 4396 3849 
Q 4230 3808 3868 3459 
Q 3507 3110 3174 2861 
L 4947 2880 
Q 4730 3296 4416 3482 
Q 4339 3526 4339 3539 
Q 4339 3552 4371 3552 
Q 4589 3552 4937 3449 
Q 5286 3347 5481 3222 
Q 5677 3098 5766 2954 
Q 5856 2810 5856 2614 
Q 5856 2419 5734 2278 
Q 5613 2138 5414 2138 
Q 5312 2138 5254 2179 
Q 5197 2221 5145 2365 
Q 5094 2509 5037 2682 
L 4166 2515 
Q 4730 2419 4861 2377 
Q 4992 2336 4992 2272 
Q 4992 2208 4838 2138 
L 4838 378 
Q 4838 243 4880 204 
Q 4922 166 5088 166 
Q 5254 166 5363 227 
Q 5472 288 5574 486 
Q 5677 685 5792 1094 
Q 5824 1197 5837 1197 
Q 5850 1197 5850 1161 
Q 5850 1126 5827 969 
Q 5805 813 5805 649 
Q 5805 486 5849 380 
Q 5894 275 6041 166 
Q 6189 58 6189 -83 
Q 6189 -256 5926 -403 
Q 5664 -550 5139 -550 
Q 4614 -550 4444 -508 
Q 4275 -467 4195 -326 
Q 4115 -186 4115 115 
L 4115 1811 
Q 4115 2221 4096 2502 
Q 3533 2394 3110 2285 
Q 3661 2234 3798 2192 
Q 3936 2150 3936 2108 
Q 3936 2067 3869 2016 
Q 3802 1965 3776 1683 
Q 3731 1165 3593 771 
Q 3456 378 3113 -6 
Q 2771 -390 2121 -534 
Q 1472 -678 1363 -678 
Q 1318 -678 1318 -662 
Q 1318 -646 1382 -621 
Q 1952 -397 2214 -221 
Q 2477 -45 2640 252 
Q 2803 550 2899 1049 
Q 2995 1549 2970 2246 
Q 2835 2208 2780 2185 
Q 2726 2163 2681 2163 
Q 2637 2163 2601 2211 
Q 2566 2259 2470 2540 
Q 2374 2822 2374 2867 
Q 2374 3002 2547 3005 
Q 2720 3008 2835 3075 
Q 2950 3142 3132 3449 
Q 3315 3757 3386 3974 
z
M 224 582 
Q 1190 730 2669 1197 
Q 2688 1203 2726 1203 
Q 2765 1203 2765 1155 
Q 2765 1107 2694 1069 
Q 1600 435 698 -275 
Q 634 -326 598 -326 
Q 563 -326 540 -281 
Q 518 -237 428 -9 
Q 339 218 224 582 
z
" transform="scale(0.015625)"/>
      <path id="STSongti-SC-Black-8ba1" d="M 3725 2829 
L 2682 2829 
Q 2554 2829 2451 2758 
L 2285 3059 
Q 2438 3040 2605 3040 
L 3725 3040 
L 3725 4646 
Q 3725 4966 3712 5216 
Q 3910 5210 4259 5152 
Q 4608 5094 4665 5056 
Q 4723 5018 4723 4973 
Q 4723 4890 4563 4832 
L 4563 3040 
L 5101 3040 
Q 5395 3603 5485 3603 
Q 5555 3603 5897 3289 
Q 6240 2976 6240 2886 
Q 6240 2829 6118 2829 
L 4563 2829 
L 4563 230 
Q 4563 19 4576 -218 
L 4582 -435 
Q 4582 -506 4537 -557 
Q 4493 -608 4294 -659 
Q 4096 -710 3891 -710 
Q 3770 -710 3738 -678 
Q 3706 -646 3706 -563 
L 3712 -314 
Q 3725 -58 3725 262 
L 3725 2829 
z
M 1024 4845 
Q 2182 4845 2182 4230 
Q 2182 4013 2022 3875 
Q 1862 3738 1721 3738 
Q 1581 3738 1472 3837 
Q 1363 3936 1338 4077 
Q 1280 4410 1187 4541 
Q 1094 4672 858 4755 
Q 762 4794 762 4819 
Q 762 4845 1024 4845 
z
M 1882 781 
Q 2291 960 2790 1286 
Q 2854 1331 2886 1331 
Q 2918 1331 2918 1305 
Q 2918 1280 2867 1229 
Q 2592 934 2128 358 
Q 1664 -218 1510 -448 
Q 1466 -512 1440 -512 
Q 1414 -512 1398 -496 
Q 1382 -480 1280 -326 
L 1062 0 
Q 947 179 905 246 
Q 864 314 864 336 
Q 864 358 890 371 
Q 1126 499 1126 710 
L 1126 2726 
L 570 2726 
Q 442 2726 339 2656 
L 173 2957 
Q 326 2938 493 2938 
L 1088 2938 
Q 1267 3226 1289 3251 
Q 1312 3277 1338 3277 
Q 1382 3277 1740 3088 
Q 2099 2899 2099 2803 
Q 2099 2707 1882 2637 
L 1882 781 
z
" transform="scale(0.015625)"/>
      <path id="STSongti-SC-Black-636e" d="M 3546 4806 
L 4979 4806 
Q 5171 5165 5248 5165 
Q 5325 5165 5552 5011 
Q 5779 4858 5913 4758 
Q 6048 4659 6048 4579 
Q 6048 4499 5830 4435 
L 5830 3821 
L 5837 3482 
Q 5837 3411 5769 3382 
Q 5702 3354 5596 3312 
Q 5491 3270 5312 3270 
Q 5133 3270 5088 3273 
Q 5043 3277 5043 3379 
L 5043 3488 
L 3430 3488 
Q 3379 2662 3354 2438 
L 4070 2438 
L 4070 2854 
Q 4070 3078 4051 3424 
Q 4307 3411 4566 3356 
Q 4826 3302 4886 3273 
Q 4947 3245 4947 3193 
Q 4947 3142 4794 3078 
L 4794 2438 
L 5222 2438 
L 5395 2733 
Q 5485 2893 5501 2912 
Q 5517 2931 5542 2931 
Q 5594 2931 5923 2678 
Q 6253 2426 6253 2326 
Q 6253 2227 6048 2227 
L 4794 2227 
L 4794 1382 
L 4960 1382 
Q 5133 1658 5161 1686 
Q 5190 1715 5241 1715 
Q 5293 1715 5491 1574 
L 5843 1331 
Q 5997 1235 5997 1152 
Q 5997 1069 5811 1011 
L 5811 -64 
Q 5811 -173 5818 -256 
L 5830 -403 
Q 5830 -467 5632 -550 
Q 5434 -634 5248 -634 
Q 5062 -634 5040 -618 
Q 5018 -602 5018 -538 
L 5018 -205 
L 3878 -205 
L 3878 -474 
Q 3878 -570 3638 -637 
Q 3398 -704 3194 -704 
Q 3149 -704 3155 -640 
Q 3168 -493 3168 -166 
L 3168 1126 
Q 3168 1382 3155 1478 
Q 2867 557 2284 -70 
Q 1702 -698 1606 -698 
Q 1594 -698 1594 -672 
Q 1594 -646 1645 -589 
Q 2182 13 2425 793 
Q 2669 1574 2701 2733 
Q 2157 2451 1888 2304 
L 1888 294 
Q 1888 -45 1795 -208 
Q 1702 -371 1472 -460 
Q 1242 -550 1066 -550 
Q 890 -550 877 -365 
Q 858 -147 765 -60 
Q 672 26 480 86 
Q 288 147 288 176 
Q 288 205 390 198 
Q 493 192 582 192 
Q 941 192 1043 265 
Q 1146 339 1146 531 
L 1146 1869 
Q 915 1722 755 1597 
Q 595 1472 569 1472 
Q 544 1472 525 1494 
Q 506 1517 384 1795 
Q 262 2074 173 2362 
Q 640 2406 1146 2509 
L 1146 3610 
L 538 3610 
Q 384 3610 262 3571 
L 154 3846 
Q 301 3821 474 3821 
L 1146 3821 
L 1146 4608 
Q 1146 4998 1120 5299 
Q 1395 5280 1641 5225 
Q 1888 5171 1968 5132 
Q 2048 5094 2048 5036 
Q 2048 4979 1888 4915 
L 1888 3821 
Q 2080 4109 2131 4176 
Q 2182 4243 2221 4243 
Q 2304 4243 2707 3802 
Q 2707 4646 2694 5152 
Q 3194 4998 3546 4806 
z
M 5043 3699 
L 5043 4595 
L 3514 4595 
Q 3456 4474 3456 4272 
Q 3456 4070 3443 3699 
L 5043 3699 
z
M 2707 3610 
L 1888 3610 
L 1888 2669 
L 2701 2867 
L 2707 3610 
z
M 4070 2227 
L 3328 2227 
Q 3277 1894 3206 1651 
Q 3603 1536 3910 1382 
L 4070 1382 
L 4070 2227 
z
M 5018 6 
L 5018 1171 
L 3930 1171 
Q 3898 1152 3878 1146 
L 3878 6 
L 5018 6 
z
" transform="scale(0.015625)"/>
     </defs>
     <use xlink:href="#STSongti-SC-Black-6837"/>
     <use xlink:href="#STSongti-SC-Black-672c" x="99.999985"/>
     <use xlink:href="#STSongti-SC-Black-6574" x="199.999969"/>
     <use xlink:href="#STSongti-SC-Black-4f53" x="299.999954"/>
     <use xlink:href="#STSongti-SC-Black-7edf" x="399.999939"/>
     <use xlink:href="#STSongti-SC-Black-8ba1" x="499.999924"/>
     <use xlink:href="#STSongti-SC-Black-6570" x="599.999908"/>
     <use xlink:href="#STSongti-SC-Black-636e" x="699.999893"/>
    </g>
   </g>
   <g id="legend_1">
    <g id="patch_9">
     <path d="M 267.72 63.99075 
L 407.72 63.99075 
Q 409.72 63.99075 409.72 61.99075 
L 409.72 48.472 
Q 409.72 46.472 407.72 46.472 
L 267.72 46.472 
Q 265.72 46.472 265.72 48.472 
L 265.72 61.99075 
Q 265.72 63.99075 267.72 63.99075 
z
" style="fill: #ffffff; opacity: 0.8; stroke: #cccccc; stroke-linejoin: miter"/>
    </g>
    <g id="patch_10">
     <path d="M 269.72 58.600125 
L 289.72 58.600125 
L 289.72 51.600125 
L 269.72 51.600125 
z
" style="fill: #bdd0f1; opacity: 0.5"/>
    </g>
    <g id="text_17">
     <!-- 平均值 -->
     <g transform="translate(297.72 58.600125) scale(0.1 -0.1)">
      <defs>
       <path id="STSongti-SC-Black-5e73" d="M 2810 4480 
L 826 4480 
Q 698 4480 595 4410 
L 429 4710 
Q 582 4691 749 4691 
L 4787 4691 
Q 4966 5011 5030 5091 
Q 5094 5171 5133 5171 
Q 5190 5171 5443 5020 
Q 5696 4870 5830 4764 
Q 5965 4659 5965 4576 
Q 5965 4480 5830 4480 
L 3718 4480 
Q 3699 4429 3629 4410 
L 3629 2042 
L 3654 2042 
Q 4358 2880 4710 4237 
Q 4960 4147 5302 3990 
Q 5645 3834 5702 3786 
Q 5760 3738 5760 3680 
Q 5760 3622 5654 3603 
Q 5549 3584 5472 3526 
Q 5395 3469 5210 3277 
Q 4582 2618 3776 2042 
L 4954 2042 
Q 5075 2253 5193 2448 
Q 5312 2643 5337 2665 
Q 5363 2688 5398 2688 
Q 5434 2688 5610 2563 
Q 5786 2438 5968 2288 
Q 6150 2138 6217 2058 
Q 6285 1978 6285 1920 
Q 6285 1830 6157 1830 
L 3629 1830 
L 3629 198 
Q 3629 -13 3642 -250 
L 3648 -467 
Q 3648 -512 3629 -531 
Q 3610 -550 3488 -595 
Q 3366 -640 3145 -681 
Q 2925 -723 2835 -723 
Q 2790 -723 2790 -627 
L 2797 -378 
Q 2810 -122 2810 198 
L 2810 1830 
L 595 1830 
Q 467 1830 365 1760 
L 198 2061 
Q 352 2042 518 2042 
L 2810 2042 
L 2810 4480 
z
M 800 4038 
Q 915 4038 1318 3897 
Q 1722 3757 1971 3481 
Q 2221 3206 2221 2816 
Q 2221 2586 2080 2432 
Q 1939 2278 1728 2278 
Q 1606 2278 1481 2380 
Q 1357 2483 1357 2797 
Q 1357 3642 838 3962 
Q 768 4006 768 4022 
Q 768 4038 800 4038 
z
" transform="scale(0.015625)"/>
       <path id="STSongti-SC-Black-5747" d="M 2861 3027 
L 1933 3027 
L 1933 1427 
L 3021 1632 
Q 3053 1632 3053 1609 
Q 3053 1587 2957 1536 
Q 2182 1126 1494 742 
Q 806 358 723 294 
Q 640 230 608 230 
Q 576 230 557 275 
L 390 640 
Q 250 966 186 1133 
L 1190 1293 
L 1190 3027 
L 531 3027 
Q 403 3027 301 2957 
L 134 3258 
Q 288 3238 454 3238 
L 1190 3238 
L 1190 4570 
Q 1190 4890 1178 5139 
Q 1715 5088 1920 5043 
Q 2125 4998 2125 4931 
Q 2125 4864 1933 4755 
L 1933 3238 
L 2163 3238 
Q 2304 3450 2355 3536 
Q 2406 3622 2464 3622 
Q 2573 3622 2931 3194 
Q 3245 4000 3347 5312 
Q 4493 5126 4493 4986 
Q 4493 4941 4384 4893 
Q 4275 4845 4179 4608 
Q 4083 4371 3885 3949 
L 5126 3949 
Q 5261 4211 5293 4252 
Q 5325 4294 5382 4294 
Q 5440 4294 5702 4128 
Q 5965 3962 6102 3869 
Q 6240 3776 6240 3686 
Q 6240 3597 5997 3533 
Q 5965 2541 5901 1485 
Q 5837 429 5782 153 
Q 5728 -122 5584 -298 
Q 5440 -474 5174 -570 
Q 4909 -666 4685 -666 
Q 4461 -666 4442 -480 
Q 4410 -211 4221 -80 
Q 4032 51 3686 128 
Q 3622 141 3622 169 
Q 3622 198 3699 198 
L 4134 186 
Q 4518 186 4694 237 
Q 4870 288 4934 384 
Q 4998 480 5033 758 
Q 5069 1037 5120 1798 
Q 4576 1498 4029 1107 
Q 3482 717 3354 601 
Q 3226 486 3194 486 
Q 3162 486 3130 524 
Q 3098 563 2934 851 
Q 2771 1139 2701 1299 
Q 4186 1683 5133 2048 
Q 5178 2874 5190 3738 
L 3776 3738 
Q 3616 3430 3469 3213 
Q 4282 3174 4499 2956 
Q 4717 2739 4717 2544 
Q 4717 2349 4585 2201 
Q 4454 2054 4291 2054 
Q 4128 2054 4029 2147 
Q 3930 2240 3930 2454 
Q 3930 2669 3824 2864 
Q 3718 3059 3514 3142 
Q 3456 3162 3456 3187 
Q 3046 2592 2694 2301 
Q 2342 2010 2266 2010 
Q 2246 2010 2246 2038 
Q 2246 2067 2291 2118 
Q 2637 2522 2861 3027 
z
" transform="scale(0.015625)"/>
       <path id="STSongti-SC-Black-503c" d="M 3162 3347 
L 3411 3347 
L 3411 4051 
L 2451 4051 
Q 2323 4051 2221 3981 
L 2054 4282 
Q 2208 4262 2374 4262 
L 3418 4262 
L 3418 4678 
Q 3418 4973 3405 5274 
Q 4013 5216 4201 5171 
Q 4390 5126 4390 5065 
Q 4390 5005 4224 4954 
L 4198 4262 
L 4877 4262 
Q 5050 4627 5126 4736 
Q 5203 4845 5251 4845 
Q 5299 4845 5539 4675 
Q 5779 4506 5939 4362 
Q 6099 4218 6099 4134 
Q 6099 4051 5952 4051 
L 4186 4051 
L 4160 3347 
L 4461 3347 
Q 4640 3744 4736 3744 
Q 4774 3744 5059 3584 
Q 5344 3424 5485 3321 
Q 5626 3219 5626 3162 
Q 5626 3072 5389 2995 
L 5389 13 
Q 5510 224 5548 272 
Q 5587 320 5641 320 
Q 5696 320 5872 176 
Q 6048 32 6198 -105 
Q 6349 -243 6349 -326 
Q 6349 -410 6214 -410 
L 2202 -410 
Q 2074 -410 1971 -480 
L 1805 -179 
Q 1958 -198 2125 -198 
L 2458 -198 
L 2458 3014 
Q 2458 3334 2445 3584 
Q 2925 3456 3162 3347 
z
M 3168 2515 
L 4595 2515 
L 4595 3136 
L 3283 3136 
Q 3238 3072 3168 3053 
L 3168 2515 
z
M 4595 2304 
L 3168 2304 
L 3168 1677 
L 4595 1677 
L 4595 2304 
z
M 4595 813 
L 4595 1466 
L 3168 1466 
L 3168 813 
L 4595 813 
z
M 4595 -198 
L 4595 602 
L 3168 602 
L 3168 -198 
L 4595 -198 
z
M 1472 3392 
Q 1888 3354 1888 3258 
Q 1888 3194 1722 3149 
L 1722 -474 
Q 1722 -525 1702 -550 
Q 1683 -576 1577 -621 
Q 1472 -666 1261 -701 
Q 1050 -736 947 -736 
Q 902 -736 902 -672 
L 922 -70 
Q 928 211 928 461 
L 928 2451 
Q 826 2291 563 2006 
Q 301 1722 243 1722 
Q 224 1722 224 1754 
Q 224 1786 262 1856 
Q 666 2573 864 3347 
Q 1062 4122 1190 5216 
Q 1632 5107 1897 5017 
Q 2163 4928 2224 4889 
Q 2285 4851 2285 4806 
Q 2285 4762 2201 4752 
Q 2118 4742 2051 4640 
Q 1984 4538 1795 4109 
Q 1606 3680 1472 3392 
z
" transform="scale(0.015625)"/>
      </defs>
      <use xlink:href="#STSongti-SC-Black-5e73"/>
      <use xlink:href="#STSongti-SC-Black-5747" x="99.999985"/>
      <use xlink:href="#STSongti-SC-Black-503c" x="199.999969"/>
     </g>
    </g>
    <g id="patch_11">
     <path d="M 347.72 58.600125 
L 367.72 58.600125 
L 367.72 51.600125 
L 347.72 51.600125 
z
" style="fill: #3b60a0; opacity: 0.5"/>
    </g>
    <g id="text_18">
     <!-- 中位数 -->
     <g transform="translate(375.72 58.600125) scale(0.1 -0.1)">
      <defs>
       <path id="STSongti-SC-Black-4e2d" d="M 1741 3878 
L 2816 3878 
L 2816 4781 
Q 2816 5101 2803 5350 
Q 3354 5331 3581 5289 
Q 3808 5248 3808 5165 
Q 3808 5082 3629 4992 
L 3629 3878 
L 4666 3878 
Q 4826 4186 4883 4250 
Q 4941 4314 5024 4314 
Q 5107 4314 5382 4154 
Q 5658 3994 5811 3888 
Q 5965 3782 5965 3686 
Q 5965 3590 5722 3533 
L 5722 1958 
Q 5722 1850 5728 1766 
L 5741 1626 
Q 5741 1581 5686 1549 
Q 5632 1517 5379 1465 
Q 5126 1414 4922 1414 
Q 4870 1414 4854 1433 
Q 4838 1453 4838 1510 
L 4838 1882 
L 3629 1882 
L 3629 237 
Q 3629 26 3635 -211 
L 3648 -429 
Q 3648 -474 3632 -493 
Q 3616 -512 3485 -557 
Q 3354 -602 3133 -643 
Q 2912 -685 2842 -685 
Q 2797 -685 2797 -589 
L 2810 -339 
Q 2816 -83 2816 237 
L 2816 1882 
L 1626 1882 
L 1626 1574 
Q 1626 1536 1606 1513 
Q 1587 1491 1468 1456 
Q 1350 1421 1148 1392 
Q 947 1363 826 1363 
Q 781 1363 787 1427 
Q 800 1574 800 1901 
L 800 3667 
Q 800 3936 781 4211 
Q 1357 4064 1741 3878 
z
M 2816 3667 
L 1779 3667 
Q 1734 3597 1626 3571 
L 1626 2093 
L 2816 2093 
L 2816 3667 
z
M 4838 2093 
L 4838 3667 
L 3629 3667 
L 3629 2093 
L 4838 2093 
z
" transform="scale(0.015625)"/>
       <path id="STSongti-SC-Black-4f4d" d="M 1203 2579 
Q 934 2240 630 1942 
Q 326 1645 269 1645 
Q 256 1645 256 1667 
Q 256 1690 314 1779 
Q 1146 3040 1568 5203 
Q 1830 5114 2147 4963 
Q 2464 4813 2550 4755 
Q 2637 4698 2637 4650 
Q 2637 4602 2553 4586 
Q 2470 4570 2422 4499 
Q 2374 4429 2236 4153 
Q 2099 3878 1850 3494 
Q 2131 3462 2131 3360 
Q 2131 3290 2010 3238 
L 2010 -467 
Q 2010 -563 1965 -608 
Q 1920 -653 1715 -694 
Q 1510 -736 1363 -736 
Q 1216 -736 1197 -717 
Q 1178 -698 1178 -640 
L 1197 -38 
Q 1203 243 1203 493 
L 1203 2579 
z
M 3238 5094 
Q 3424 5094 3805 4966 
Q 4186 4838 4355 4643 
Q 4525 4448 4525 4224 
Q 4525 4000 4381 3853 
Q 4237 3706 4022 3706 
Q 3808 3706 3686 3834 
Q 3565 3962 3565 4134 
Q 3565 4179 3587 4281 
Q 3610 4384 3610 4525 
Q 3610 4666 3520 4781 
Q 3430 4896 3299 4966 
Q 3168 5037 3168 5065 
Q 3168 5094 3238 5094 
z
M 4973 3571 
Q 5082 3776 5178 3926 
Q 5274 4077 5309 4115 
Q 5344 4154 5382 4154 
Q 5478 4154 5852 3850 
Q 6227 3546 6227 3430 
Q 6227 3360 6061 3360 
L 2605 3360 
Q 2477 3360 2374 3290 
L 2208 3590 
Q 2362 3571 2528 3571 
L 4973 3571 
z
M 4147 -160 
Q 4570 1754 4608 3104 
Q 4973 3014 5318 2899 
Q 5664 2784 5721 2742 
Q 5779 2701 5779 2646 
Q 5779 2592 5686 2560 
Q 5594 2528 5517 2403 
Q 5440 2278 5338 2029 
Q 4883 877 4397 -160 
L 5088 -160 
Q 5210 58 5315 221 
Q 5421 384 5456 422 
Q 5491 461 5530 461 
Q 5619 461 5971 144 
Q 6323 -173 6323 -294 
Q 6323 -371 6157 -371 
L 2426 -371 
Q 2298 -371 2195 -442 
L 2029 -141 
Q 2182 -160 2349 -160 
L 4147 -160 
z
M 2464 2982 
Q 2547 2982 2956 2646 
Q 3366 2310 3600 1916 
Q 3834 1523 3834 1107 
Q 3834 819 3658 617 
Q 3482 416 3238 416 
Q 2931 416 2931 794 
Q 2931 890 2963 1053 
Q 2995 1216 2995 1526 
Q 2995 1837 2867 2205 
Q 2739 2573 2509 2861 
Q 2445 2931 2445 2956 
Q 2445 2982 2464 2982 
z
" transform="scale(0.015625)"/>
      </defs>
      <use xlink:href="#STSongti-SC-Black-4e2d"/>
      <use xlink:href="#STSongti-SC-Black-4f4d" x="99.999985"/>
      <use xlink:href="#STSongti-SC-Black-6570" x="199.999969"/>
     </g>
    </g>
   </g>
  </g>
  <g id="axes_2">
   <g id="patch_12">
    <path d="M 141.469091 307.584 
L 195.578182 307.584 
L 195.578182 54.144 
L 141.469091 54.144 
z
" clip-path="url(#p64c3713b69)" style="fill: #bdd0f1; opacity: 0.5"/>
   </g>
   <g id="patch_13">
    <path d="M 209.105455 307.584 
L 263.214545 307.584 
L 263.214545 246.977278 
L 209.105455 246.977278 
z
" clip-path="url(#p64c3713b69)" style="fill: #bdd0f1; opacity: 0.5"/>
   </g>
   <g id="patch_14">
    <path d="M 276.741818 307.584 
L 330.850909 307.584 
L 330.850909 195.86491 
L 276.741818 195.86491 
z
" clip-path="url(#p64c3713b69)" style="fill: #bdd0f1; opacity: 0.5"/>
   </g>
   <g id="patch_15">
    <path d="M 344.378182 307.584 
L 398.487273 307.584 
L 398.487273 276.7371 
L 344.378182 276.7371 
z
" clip-path="url(#p64c3713b69)" style="fill: #bdd0f1; opacity: 0.5"/>
   </g>
   <g id="patch_16">
    <path d="M 141.469091 307.584 
L 195.578182 307.584 
L 195.578182 259.273888 
L 141.469091 259.273888 
z
" clip-path="url(#p64c3713b69)" style="fill: #3b60a0; opacity: 0.5"/>
   </g>
   <g id="patch_17">
    <path d="M 209.105455 307.584 
L 263.214545 307.584 
L 263.214545 303.614011 
L 209.105455 303.614011 
z
" clip-path="url(#p64c3713b69)" style="fill: #3b60a0; opacity: 0.5"/>
   </g>
   <g id="patch_18">
    <path d="M 276.741818 307.584 
L 330.850909 307.584 
L 330.850909 296.611094 
L 276.741818 296.611094 
z
" clip-path="url(#p64c3713b69)" style="fill: #3b60a0; opacity: 0.5"/>
   </g>
   <g id="patch_19">
    <path d="M 344.378182 307.584 
L 398.487273 307.584 
L 398.487273 307.022479 
L 344.378182 307.022479 
z
" clip-path="url(#p64c3713b69)" style="fill: #3b60a0; opacity: 0.5"/>
   </g>
   <g id="matplotlib.axis_3">
    <g id="ytick_8">
     <g id="line2d_13">
      <defs>
       <path id="m472e193263" d="M 0 0 
L 3.5 0 
" style="stroke: #000000; stroke-width: 0.8"/>
      </defs>
      <g>
       <use xlink:href="#m472e193263" x="414.72" y="307.584" style="stroke: #000000; stroke-width: 0.8"/>
      </g>
     </g>
     <g id="text_19">
      <!-- 0 -->
      <g transform="translate(421.72 311.184) scale(0.1 -0.1)">
       <use xlink:href="#STSongti-SC-Black-30"/>
      </g>
     </g>
    </g>
    <g id="ytick_9">
     <g id="line2d_14">
      <g>
       <use xlink:href="#m472e193263" x="414.72" y="271.818337" style="stroke: #000000; stroke-width: 0.8"/>
      </g>
     </g>
     <g id="text_20">
      <!-- 100000 -->
      <g transform="translate(421.72 275.418337) scale(0.1 -0.1)">
       <use xlink:href="#STSongti-SC-Black-31"/>
       <use xlink:href="#STSongti-SC-Black-30" x="46.899994"/>
       <use xlink:href="#STSongti-SC-Black-30" x="93.799988"/>
       <use xlink:href="#STSongti-SC-Black-30" x="140.699982"/>
       <use xlink:href="#STSongti-SC-Black-30" x="187.599976"/>
       <use xlink:href="#STSongti-SC-Black-30" x="234.499969"/>
      </g>
     </g>
    </g>
    <g id="ytick_10">
     <g id="line2d_15">
      <g>
       <use xlink:href="#m472e193263" x="414.72" y="236.052673" style="stroke: #000000; stroke-width: 0.8"/>
      </g>
     </g>
     <g id="text_21">
      <!-- 200000 -->
      <g transform="translate(421.72 239.652673) scale(0.1 -0.1)">
       <use xlink:href="#STSongti-SC-Black-32"/>
       <use xlink:href="#STSongti-SC-Black-30" x="46.899994"/>
       <use xlink:href="#STSongti-SC-Black-30" x="93.799988"/>
       <use xlink:href="#STSongti-SC-Black-30" x="140.699982"/>
       <use xlink:href="#STSongti-SC-Black-30" x="187.599976"/>
       <use xlink:href="#STSongti-SC-Black-30" x="234.499969"/>
      </g>
     </g>
    </g>
    <g id="ytick_11">
     <g id="line2d_16">
      <g>
       <use xlink:href="#m472e193263" x="414.72" y="200.28701" style="stroke: #000000; stroke-width: 0.8"/>
      </g>
     </g>
     <g id="text_22">
      <!-- 300000 -->
      <g transform="translate(421.72 203.88701) scale(0.1 -0.1)">
       <use xlink:href="#STSongti-SC-Black-33"/>
       <use xlink:href="#STSongti-SC-Black-30" x="46.899994"/>
       <use xlink:href="#STSongti-SC-Black-30" x="93.799988"/>
       <use xlink:href="#STSongti-SC-Black-30" x="140.699982"/>
       <use xlink:href="#STSongti-SC-Black-30" x="187.599976"/>
       <use xlink:href="#STSongti-SC-Black-30" x="234.499969"/>
      </g>
     </g>
    </g>
    <g id="ytick_12">
     <g id="line2d_17">
      <g>
       <use xlink:href="#m472e193263" x="414.72" y="164.521346" style="stroke: #000000; stroke-width: 0.8"/>
      </g>
     </g>
     <g id="text_23">
      <!-- 400000 -->
      <g transform="translate(421.72 168.121346) scale(0.1 -0.1)">
       <defs>
        <path id="STSongti-SC-Black-34" d="M 2086 4448 
L 2387 4448 
L 2387 1843 
L 2918 1843 
L 2918 1434 
L 2387 1434 
L 2387 282 
L 1670 282 
L 1670 1434 
L 122 1434 
L 122 1760 
L 966 2912 
Q 1254 3296 1529 3680 
Q 1805 4064 2086 4448 
z
M 1670 1843 
L 1670 3469 
Q 1453 3168 1289 2944 
Q 1126 2720 992 2537 
Q 858 2355 739 2188 
Q 621 2022 493 1843 
L 1670 1843 
z
" transform="scale(0.015625)"/>
       </defs>
       <use xlink:href="#STSongti-SC-Black-34"/>
       <use xlink:href="#STSongti-SC-Black-30" x="46.899994"/>
       <use xlink:href="#STSongti-SC-Black-30" x="93.799988"/>
       <use xlink:href="#STSongti-SC-Black-30" x="140.699982"/>
       <use xlink:href="#STSongti-SC-Black-30" x="187.599976"/>
       <use xlink:href="#STSongti-SC-Black-30" x="234.499969"/>
      </g>
     </g>
    </g>
    <g id="ytick_13">
     <g id="line2d_18">
      <g>
       <use xlink:href="#m472e193263" x="414.72" y="128.755683" style="stroke: #000000; stroke-width: 0.8"/>
      </g>
     </g>
     <g id="text_24">
      <!-- 500000 -->
      <g transform="translate(421.72 132.355683) scale(0.1 -0.1)">
       <use xlink:href="#STSongti-SC-Black-35"/>
       <use xlink:href="#STSongti-SC-Black-30" x="46.899994"/>
       <use xlink:href="#STSongti-SC-Black-30" x="93.799988"/>
       <use xlink:href="#STSongti-SC-Black-30" x="140.699982"/>
       <use xlink:href="#STSongti-SC-Black-30" x="187.599976"/>
       <use xlink:href="#STSongti-SC-Black-30" x="234.499969"/>
      </g>
     </g>
    </g>
    <g id="ytick_14">
     <g id="line2d_19">
      <g>
       <use xlink:href="#m472e193263" x="414.72" y="92.990019" style="stroke: #000000; stroke-width: 0.8"/>
      </g>
     </g>
     <g id="text_25">
      <!-- 600000 -->
      <g transform="translate(421.72 96.590019) scale(0.1 -0.1)">
       <use xlink:href="#STSongti-SC-Black-36"/>
       <use xlink:href="#STSongti-SC-Black-30" x="46.899994"/>
       <use xlink:href="#STSongti-SC-Black-30" x="93.799988"/>
       <use xlink:href="#STSongti-SC-Black-30" x="140.699982"/>
       <use xlink:href="#STSongti-SC-Black-30" x="187.599976"/>
       <use xlink:href="#STSongti-SC-Black-30" x="234.499969"/>
      </g>
     </g>
    </g>
    <g id="ytick_15">
     <g id="line2d_20">
      <g>
       <use xlink:href="#m472e193263" x="414.72" y="57.224356" style="stroke: #000000; stroke-width: 0.8"/>
      </g>
     </g>
     <g id="text_26">
      <!-- 700000 -->
      <g transform="translate(421.72 60.824356) scale(0.1 -0.1)">
       <defs>
        <path id="STSongti-SC-Black-37" d="M 358 4384 
L 2822 4384 
L 2822 4275 
Q 2714 4083 2522 3596 
Q 2330 3110 2042 2310 
Q 1485 736 1427 384 
L 1043 384 
Q 1120 717 1222 1065 
Q 1325 1414 1462 1817 
Q 1600 2221 1779 2691 
Q 1958 3162 2189 3731 
L 634 3731 
Q 467 3731 461 3648 
L 410 3379 
L 269 3379 
L 358 4384 
z
" transform="scale(0.015625)"/>
       </defs>
       <use xlink:href="#STSongti-SC-Black-37"/>
       <use xlink:href="#STSongti-SC-Black-30" x="46.899994"/>
       <use xlink:href="#STSongti-SC-Black-30" x="93.799988"/>
       <use xlink:href="#STSongti-SC-Black-30" x="140.699982"/>
       <use xlink:href="#STSongti-SC-Black-30" x="187.599976"/>
       <use xlink:href="#STSongti-SC-Black-30" x="234.499969"/>
      </g>
     </g>
    </g>
    <g id="text_27">
     <!-- 数量/次 -->
     <g transform="translate(461.9825 192.028) rotate(-90) scale(0.1 -0.1)">
      <defs>
       <path id="STSongti-SC-Black-6b21" d="M 3379 3782 
Q 2931 2957 2464 2457 
Q 1997 1958 1933 1958 
Q 1920 1958 1920 1971 
Q 1920 2003 1984 2106 
Q 2368 2733 2624 3577 
Q 2880 4422 2938 5293 
Q 3392 5184 3721 5081 
Q 4051 4979 4096 4947 
Q 4141 4915 4141 4870 
Q 4141 4794 4025 4774 
Q 3910 4755 3849 4688 
Q 3789 4621 3696 4413 
Q 3603 4205 3488 3994 
L 4832 3994 
Q 4922 4179 5011 4304 
Q 5101 4429 5158 4429 
Q 5254 4429 5699 4080 
Q 6144 3731 6144 3600 
Q 6144 3469 5952 3469 
L 5722 3475 
Q 5427 3475 5238 3350 
Q 5050 3226 4819 2931 
Q 4755 2848 4726 2848 
Q 4698 2848 4698 2883 
Q 4698 2918 4710 2970 
Q 4845 3398 4909 3782 
L 3379 3782 
z
M 691 4685 
Q 1882 4685 1882 3962 
Q 1882 3763 1728 3606 
Q 1574 3450 1401 3450 
Q 1229 3450 1139 3546 
Q 1050 3642 1034 3872 
Q 1018 4102 902 4294 
Q 787 4486 550 4608 
Q 480 4646 480 4665 
Q 480 4685 691 4685 
z
M 2426 4224 
L 1658 2150 
Q 1510 1754 1510 1418 
Q 1510 1082 1619 493 
Q 1645 352 1645 237 
Q 1645 -320 1088 -320 
Q 870 -320 752 -201 
Q 634 -83 634 89 
Q 634 262 678 410 
Q 864 986 864 1184 
Q 864 1382 749 1484 
Q 634 1587 269 1670 
Q 218 1683 218 1712 
Q 218 1741 275 1741 
L 442 1734 
Q 762 1734 970 1878 
Q 1178 2022 1402 2445 
L 2349 4262 
Q 2400 4352 2422 4352 
Q 2445 4352 2445 4317 
Q 2445 4282 2426 4224 
z
M 4134 2061 
Q 4013 1389 3715 883 
Q 3418 378 2938 29 
Q 2458 -320 1885 -499 
Q 1312 -678 1203 -678 
Q 1171 -678 1171 -672 
Q 1171 -646 1306 -582 
Q 2502 13 2963 797 
Q 3424 1581 3424 2931 
Q 3424 3162 3411 3411 
Q 4051 3347 4390 3334 
Q 4538 3328 4538 3245 
Q 4538 3162 4419 3126 
Q 4301 3091 4250 2931 
Q 4352 1862 4809 1180 
Q 5267 499 6189 115 
Q 6278 77 6278 51 
Q 6278 26 6182 -6 
Q 5946 -90 5754 -243 
Q 5562 -397 5491 -544 
Q 5453 -627 5382 -627 
Q 5248 -627 4870 -198 
Q 4493 230 4323 768 
Q 4154 1306 4134 2061 
z
" transform="scale(0.015625)"/>
      </defs>
      <use xlink:href="#STSongti-SC-Black-6570"/>
      <use xlink:href="#STSongti-SC-Black-91cf" x="99.999985"/>
      <use xlink:href="#STSongti-SC-Black-2f" x="199.999969"/>
      <use xlink:href="#STSongti-SC-Black-6b21" x="249.999954"/>
     </g>
    </g>
   </g>
   <g id="patch_20">
    <path d="M 57.6 307.584 
L 57.6 41.472 
" style="fill: none; stroke: #000000; stroke-width: 0.8; stroke-linejoin: miter; stroke-linecap: square"/>
   </g>
   <g id="patch_21">
    <path d="M 414.72 307.584 
L 414.72 41.472 
" style="fill: none; stroke: #000000; stroke-width: 0.8; stroke-linejoin: miter; stroke-linecap: square"/>
   </g>
   <g id="patch_22">
    <path d="M 57.6 307.584 
L 414.72 307.584 
" style="fill: none; stroke: #000000; stroke-width: 0.8; stroke-linejoin: miter; stroke-linecap: square"/>
   </g>
   <g id="patch_23">
    <path d="M 57.6 41.472 
L 414.72 41.472 
" style="fill: none; stroke: #000000; stroke-width: 0.8; stroke-linejoin: miter; stroke-linecap: square"/>
   </g>
   <g id="text_28">
    <!-- 708613 -->
    <g transform="translate(154.451761 49.753375) scale(0.1 -0.1)">
     <use xlink:href="#STSongti-SC-Black-37"/>
     <use xlink:href="#STSongti-SC-Black-30" x="46.899994"/>
     <use xlink:href="#STSongti-SC-Black-38" x="93.799988"/>
     <use xlink:href="#STSongti-SC-Black-36" x="140.699982"/>
     <use xlink:href="#STSongti-SC-Black-31" x="187.599976"/>
     <use xlink:href="#STSongti-SC-Black-33" x="234.499969"/>
    </g>
   </g>
   <g id="text_29">
    <!-- 169455 -->
    <g transform="translate(222.088125 242.586653) scale(0.1 -0.1)">
     <defs>
      <path id="STSongti-SC-Black-39" d="M 1658 2022 
Q 1485 1939 1299 1939 
Q 1069 1939 864 2009 
Q 659 2080 505 2221 
Q 352 2362 265 2579 
Q 179 2797 179 3091 
Q 179 3386 281 3635 
Q 384 3885 560 4067 
Q 736 4250 969 4349 
Q 1203 4448 1466 4448 
Q 1747 4448 1984 4339 
Q 2221 4230 2390 4022 
Q 2560 3814 2656 3520 
Q 2752 3226 2752 2861 
Q 2752 2374 2582 1932 
Q 2413 1491 2118 1142 
Q 1824 794 1417 560 
Q 1011 326 544 262 
L 518 403 
Q 915 506 1187 742 
Q 1459 979 1628 1308 
Q 1798 1638 1872 2051 
Q 1946 2464 1946 2918 
Q 1946 3194 1930 3446 
Q 1914 3699 1866 3891 
Q 1818 4083 1722 4195 
Q 1626 4307 1466 4307 
Q 1318 4307 1219 4204 
Q 1120 4102 1059 3939 
Q 998 3776 972 3571 
Q 947 3366 947 3162 
Q 947 2989 982 2806 
Q 1018 2624 1088 2477 
Q 1158 2330 1260 2234 
Q 1363 2138 1498 2138 
Q 1587 2138 1638 2157 
L 1658 2022 
z
" transform="scale(0.015625)"/>
     </defs>
     <use xlink:href="#STSongti-SC-Black-31"/>
     <use xlink:href="#STSongti-SC-Black-36" x="46.899994"/>
     <use xlink:href="#STSongti-SC-Black-39" x="93.799988"/>
     <use xlink:href="#STSongti-SC-Black-34" x="140.699982"/>
     <use xlink:href="#STSongti-SC-Black-35" x="187.599976"/>
     <use xlink:href="#STSongti-SC-Black-35" x="234.499969"/>
    </g>
   </g>
   <g id="text_30">
    <!-- 312364 -->
    <g transform="translate(289.724489 191.474285) scale(0.1 -0.1)">
     <use xlink:href="#STSongti-SC-Black-33"/>
     <use xlink:href="#STSongti-SC-Black-31" x="46.899994"/>
     <use xlink:href="#STSongti-SC-Black-32" x="93.799988"/>
     <use xlink:href="#STSongti-SC-Black-33" x="140.699982"/>
     <use xlink:href="#STSongti-SC-Black-36" x="187.599976"/>
     <use xlink:href="#STSongti-SC-Black-34" x="234.499969"/>
    </g>
   </g>
   <g id="text_31">
    <!-- 86247.2 -->
    <g transform="translate(356.26554 272.346475) scale(0.1 -0.1)">
     <use xlink:href="#STSongti-SC-Black-38"/>
     <use xlink:href="#STSongti-SC-Black-36" x="46.899994"/>
     <use xlink:href="#STSongti-SC-Black-32" x="93.799988"/>
     <use xlink:href="#STSongti-SC-Black-34" x="140.699982"/>
     <use xlink:href="#STSongti-SC-Black-37" x="187.599976"/>
     <use xlink:href="#STSongti-SC-Black-2e" x="234.499969"/>
     <use xlink:href="#STSongti-SC-Black-32" x="256.399963"/>
    </g>
   </g>
   <g id="text_32">
    <!-- 135074 -->
    <g transform="translate(154.451761 254.883263) scale(0.1 -0.1)">
     <use xlink:href="#STSongti-SC-Black-31"/>
     <use xlink:href="#STSongti-SC-Black-33" x="46.899994"/>
     <use xlink:href="#STSongti-SC-Black-35" x="93.799988"/>
     <use xlink:href="#STSongti-SC-Black-30" x="140.699982"/>
     <use xlink:href="#STSongti-SC-Black-37" x="187.599976"/>
     <use xlink:href="#STSongti-SC-Black-34" x="234.499969"/>
    </g>
   </g>
   <g id="text_33">
    <!-- 11100 -->
    <g transform="translate(224.433437 299.223386) scale(0.1 -0.1)">
     <use xlink:href="#STSongti-SC-Black-31"/>
     <use xlink:href="#STSongti-SC-Black-31" x="46.899994"/>
     <use xlink:href="#STSongti-SC-Black-31" x="93.799988"/>
     <use xlink:href="#STSongti-SC-Black-30" x="140.699982"/>
     <use xlink:href="#STSongti-SC-Black-30" x="187.599976"/>
    </g>
   </g>
   <g id="text_34">
    <!-- 30680 -->
    <g transform="translate(292.069801 292.220469) scale(0.1 -0.1)">
     <use xlink:href="#STSongti-SC-Black-33"/>
     <use xlink:href="#STSongti-SC-Black-30" x="46.899994"/>
     <use xlink:href="#STSongti-SC-Black-36" x="93.799988"/>
     <use xlink:href="#STSongti-SC-Black-38" x="140.699982"/>
     <use xlink:href="#STSongti-SC-Black-30" x="187.599976"/>
    </g>
   </g>
   <g id="text_35">
    <!-- 1570 -->
    <g transform="translate(362.051477 302.631854) scale(0.1 -0.1)">
     <use xlink:href="#STSongti-SC-Black-31"/>
     <use xlink:href="#STSongti-SC-Black-35" x="46.899994"/>
     <use xlink:href="#STSongti-SC-Black-37" x="93.799988"/>
     <use xlink:href="#STSongti-SC-Black-30" x="140.699982"/>
    </g>
   </g>
   <g id="legend_2">
    <g id="patch_24">
     <path d="M 267.72 63.99075 
L 407.72 63.99075 
Q 409.72 63.99075 409.72 61.99075 
L 409.72 48.472 
Q 409.72 46.472 407.72 46.472 
L 267.72 46.472 
Q 265.72 46.472 265.72 48.472 
L 265.72 61.99075 
Q 265.72 63.99075 267.72 63.99075 
z
" style="fill: #ffffff; opacity: 0.8; stroke: #cccccc; stroke-linejoin: miter"/>
    </g>
    <g id="patch_25">
     <path d="M 269.72 58.600125 
L 289.72 58.600125 
L 289.72 51.600125 
L 269.72 51.600125 
z
" style="fill: #bdd0f1; opacity: 0.5"/>
    </g>
    <g id="text_36">
     <!-- 平均值 -->
     <g transform="translate(297.72 58.600125) scale(0.1 -0.1)">
      <use xlink:href="#STSongti-SC-Black-5e73"/>
      <use xlink:href="#STSongti-SC-Black-5747" x="99.999985"/>
      <use xlink:href="#STSongti-SC-Black-503c" x="199.999969"/>
     </g>
    </g>
    <g id="patch_26">
     <path d="M 347.72 58.600125 
L 367.72 58.600125 
L 367.72 51.600125 
L 347.72 51.600125 
z
" style="fill: #3b60a0; opacity: 0.5"/>
    </g>
    <g id="text_37">
     <!-- 中位数 -->
     <g transform="translate(375.72 58.600125) scale(0.1 -0.1)">
      <use xlink:href="#STSongti-SC-Black-4e2d"/>
      <use xlink:href="#STSongti-SC-Black-4f4d" x="99.999985"/>
      <use xlink:href="#STSongti-SC-Black-6570" x="199.999969"/>
     </g>
    </g>
   </g>
  </g>
 </g>
 <defs>
  <clipPath id="p64c3713b69">
   <rect x="57.6" y="41.472" width="357.12" height="266.112"/>
  </clipPath>
 </defs>
</svg>
